<?xml version="1.0" encoding="utf-8"?>
<!-- Generator: Adobe Illustrator 24.0.1, SVG Export Plug-In . SVG Version: 6.00 Build 0)  -->
<svg
  version="1.1"
  id="图层_1"
  xmlns="http://www.w3.org/2000/svg"
  xmlns:xlink="http://www.w3.org/1999/xlink"
  x="0px"
  y="0px"
  viewBox="0 0 98.3 134.2"
  style="enable-background: new 0 0 98.3 134.2"
  xml:space="preserve"
>
  <style type="text/css">
    .st0 {
      fill: none;
      stroke: currentColor;
      stroke-width: 0.6;
      stroke-miterlimit: 10;
    }
  </style>
  <g>
    <g>
      <path
        d="M49.5,89.7c-4,0-8,0-11.9,0c-1.5,0-3,0-4.4,0c-1.5,0-2.7-1.2-2.7-2.7c0-0.3,0-0.6,0-1c0-4.2,0-8.4,0-12.6
			c0-4.6,0-9.3,0-13.9c0-1-0.2-2.2,0.2-3.2c0.8-1.9,2.6-1.7,4.2-1.7c4.8,0,9.6,0,14.4,0c2,0,4,0,6.1,0c0.4,0,0.9,0,1.3,0
			c1.5,0,2.7,1.2,2.8,2.7c0.1,3,0,5.9,0,8.9c0,5.1,0,10.2,0,15.3c0,1.6,0,3.2,0,4.8c0,0.2,0,0.5,0,0.7c-0.1,1.8-1.4,2.7-3.1,2.7
			c-1,0-1.9,0-2.9,0c-0.4,0-0.4,0.6,0,0.6c1,0,2.1,0,3.1,0c1.4,0,2.7-0.7,3.3-2.1c0.4-1,0.2-2.3,0.2-3.4c0-4.8,0-9.7,0-14.5
			c0-4.1,0-8.3,0-12.4c0-0.4,0-0.8-0.1-1.2c-0.3-1.6-1.7-2.7-3.2-2.7c-1.2,0-2.4,0-3.6,0c-5.2,0-10.3,0-15.5,0c-1.5,0-2.9,0-4.4,0
			c-2,0-3.4,1.6-3.4,3.6c0,3.8,0,7.7,0,11.5c0,5,0,10,0,15c0,1,0,1.9,0,2.9c0,1.6,1.2,3.1,2.9,3.3c0.5,0.1,1,0,1.4,0
			c4.7,0,9.4,0,14.2,0c0.4,0,0.8,0,1.2,0C49.9,90.3,49.9,89.7,49.5,89.7L49.5,89.7z"
      />
    </g>
  </g>
  <g>
    <g>
      <path
        d="M39.6,54.2c0-1.3,0-2.5,0-3.8c0-1.5-0.2-3.3,1.4-4.1c0.7-0.4,1.5-0.3,2.3-0.3c1.1,0,2.1,0,3.2,0c6,0,12,0,18,0
			c0.5,0,1,0,1.4,0c1.6,0.1,2.6,1.4,2.6,2.9c0,1.9,0,3.8,0,5.6c0,6.4,0,12.8,0,19.2c0,1.5,0,3.1,0,4.6c0,0.9-0.4,1.7-1.2,2.2
			c-0.6,0.4-1.3,0.5-2,0.5c-1.5,0-3.1,0-4.6,0c-0.4,0-0.7,0-1.1,0c-0.4,0-0.4,0.6,0,0.6c1.3,0,2.6,0,3.9,0c1.3,0,2.9,0.2,4.1-0.6
			c1.8-1.2,1.5-3.4,1.5-5.3c0-6.5,0-12.9,0-19.4c0-2.4,0-4.7,0-7.1c0-0.7,0-1.5-0.3-2.2c-0.6-1.3-1.9-1.9-3.2-1.9
			c-5.8,0-11.6,0-17.4,0c-1.9,0-3.9,0-5.8,0c-1.9,0-3.3,1.5-3.3,3.3c0,1.4,0,2.8,0,4.2c0,0.4,0,0.9,0,1.3
			C39,54.5,39.6,54.5,39.6,54.2L39.6,54.2z"
      />
    </g>
  </g>
  <g>
    <g>
      <path
        d="M35.4,59.7c3.4,0,6.7,0,10.1,0c0.5,0,1,0,1.4,0c0.4,0,0.4-0.6,0-0.6c-3.4,0-6.7,0-10.1,0c-0.5,0-1,0-1.4,0
			C35.1,59.1,35.1,59.7,35.4,59.7L35.4,59.7z"
      />
    </g>
  </g>
  <g>
    <g>
      <path
        d="M35.2,64.8c5.5,0,11,0,16.5,0c0.8,0,1.6,0,2.4,0c0.4,0,0.4-0.6,0-0.6c-5.5,0-11,0-16.5,0c-0.8,0-1.6,0-2.4,0
			C34.8,64.2,34.8,64.8,35.2,64.8L35.2,64.8z"
      />
    </g>
  </g>
  <g>
    <g>
      <path
        d="M35.2,69.9c1.4,0,2.7,0,4.1,0c0.2,0,0.4,0,0.6,0c0.4,0,0.4-0.6,0-0.6c-1.4,0-2.7,0-4.1,0c-0.2,0-0.4,0-0.6,0
			C34.8,69.3,34.8,69.9,35.2,69.9L35.2,69.9z"
      />
    </g>
  </g>
  <g>
    <g>
      <path
        d="M24.7,48.7c-0.2-0.8-0.4-1.5-0.6-2.3c-0.1-0.5-0.4-1-0.9-1.4c-0.4-0.3-0.9-0.4-1.4-0.5c-0.2,0-1.2-0.2-1.2-0.4
			c0-0.2,1-0.4,1.2-0.4c1.1-0.3,1.9-1,2.2-2.1c0.1-0.4,0.2-0.9,0.4-1.3c0.1-0.2,0.1-0.8,0.3-0.9c0.3-0.3,0.4,0.7,0.5,0.8
			c0.1,0.5,0.2,0.9,0.3,1.4c0.3,1.1,1,1.8,2.1,2.1c0.2,0.1,0.5,0.1,0.7,0.2c0.2,0,0.4,0.1,0.6,0.2c0.4,0.3-0.6,0.4-0.7,0.4
			c-0.5,0.1-1,0.2-1.4,0.4c-0.6,0.3-1,0.8-1.2,1.5c-0.1,0.5-0.2,1-0.3,1.4c-0.1,0.3-0.1,0.5-0.2,0.8C25,48.6,24.9,49,24.7,48.7
			c-0.1-0.4-0.7-0.2-0.6,0.2c0.2,0.5,0.9,0.8,1.3,0.2c0.2-0.3,0.2-0.8,0.3-1.2c0.1-0.5,0.2-1,0.3-1.5c0.2-0.7,0.6-1.1,1.3-1.2
			c0.6-0.1,2.6-0.3,2.1-1.4c-0.2-0.4-0.9-0.5-1.3-0.6c-0.6-0.2-1.2-0.3-1.6-0.7C26.2,42,26.1,41.5,26,41c-0.1-0.5-0.3-1.1-0.4-1.6
			c-0.1-0.4-0.3-0.8-0.8-0.7c-0.5,0.1-0.6,0.5-0.7,0.9c-0.3,1-0.5,2.4-1.4,3.1c-0.5,0.4-1.1,0.5-1.7,0.6c-0.5,0.1-1,0.3-0.9,0.9
			c0,0.6,0.7,0.7,1.2,0.8c0.6,0.2,1.4,0.2,1.9,0.7c0.4,0.4,0.5,1.1,0.6,1.7c0.1,0.5,0.3,1,0.4,1.5C24.3,49.2,24.8,49,24.7,48.7z"
      />
    </g>
  </g>
  <g>
    <g>
      <path
        d="M84.5,81.9c-0.1-0.5-0.3-1-0.4-1.5c-0.1-0.4-0.3-0.7-0.6-1c-0.3-0.2-0.6-0.3-0.9-0.4c-0.1,0-0.7-0.2-0.7-0.2
			c0,0,0.6-0.2,0.7-0.2c0.8-0.2,1.3-0.7,1.6-1.5c0.1-0.3,0.2-0.6,0.2-0.9c0-0.1,0.1-0.6,0.2-0.6c0,0,0.3,1.3,0.3,1.5
			c0.2,0.8,0.7,1.3,1.4,1.5c0.2,0,0.3,0.1,0.5,0.1c0.1,0,0.3,0,0.4,0.1c0,0,0,0-0.1,0c-0.1,0-0.3,0.1-0.4,0.1
			c-0.3,0.1-0.7,0.1-1,0.3c-0.4,0.2-0.7,0.6-0.8,1.1c-0.1,0.3-0.1,0.6-0.2,1C84.6,81.4,84.4,81.8,84.5,81.9
			c-0.1-0.4-0.7-0.2-0.6,0.2c0.2,0.4,0.8,0.6,1.1,0.2c0.1-0.2,0.2-0.5,0.2-0.8c0.1-0.3,0.1-0.7,0.2-1c0.1-0.4,0.4-0.7,0.8-0.8
			c0.5-0.1,1.9-0.2,1.5-1.1c-0.2-0.3-0.6-0.4-0.9-0.4c-0.4-0.1-0.8-0.2-1-0.5c-0.3-0.3-0.3-0.6-0.4-0.9c-0.1-0.4-0.2-0.7-0.3-1.1
			c-0.1-0.3-0.3-0.6-0.7-0.6c-0.4,0-0.5,0.4-0.6,0.7c-0.2,0.7-0.3,1.6-0.9,2c-0.3,0.2-0.7,0.3-1.1,0.4c-0.3,0.1-0.7,0.2-0.7,0.7
			c0,0.5,0.5,0.5,0.9,0.6c0.4,0.1,0.9,0.2,1.2,0.5c0.3,0.3,0.3,0.7,0.4,1.1c0.1,0.3,0.2,0.6,0.3,1C84,82.4,84.6,82.3,84.5,81.9z"
      />
    </g>
  </g>
  <g>
    <g>
      <path
        d="M45,117.3c-0.1-0.5-0.3-1-0.4-1.5c-0.1-0.4-0.3-0.7-0.6-1c-0.3-0.2-0.6-0.3-0.9-0.4c-0.1,0-0.7-0.2-0.7-0.2
			c0,0,0.6-0.2,0.7-0.2c0.8-0.2,1.3-0.7,1.6-1.5c0.1-0.3,0.2-0.6,0.2-0.9c0-0.1,0.1-0.6,0.2-0.6c0,0,0.3,1.3,0.3,1.5
			c0.2,0.8,0.7,1.3,1.4,1.5c0.2,0,0.3,0.1,0.5,0.1c0.1,0,0.3,0,0.4,0.1c0,0,0,0-0.1,0c-0.1,0-0.3,0.1-0.4,0.1
			c-0.3,0.1-0.7,0.1-1,0.3c-0.4,0.2-0.7,0.6-0.8,1.1c-0.1,0.3-0.1,0.6-0.2,1C45.1,116.9,45,117.2,45,117.3c-0.1-0.4-0.7-0.2-0.6,0.2
			c0.2,0.4,0.8,0.6,1.1,0.2c0.1-0.2,0.2-0.5,0.2-0.8c0.1-0.3,0.1-0.7,0.2-1c0.1-0.4,0.4-0.7,0.8-0.8c0.5-0.1,1.9-0.2,1.5-1.1
			c-0.2-0.3-0.6-0.4-0.9-0.4c-0.4-0.1-0.8-0.2-1-0.5c-0.3-0.3-0.3-0.6-0.4-0.9c-0.1-0.4-0.2-0.7-0.3-1.1c-0.1-0.3-0.3-0.6-0.7-0.6
			c-0.4,0-0.5,0.4-0.6,0.7c-0.2,0.7-0.3,1.6-0.9,2c-0.3,0.2-0.7,0.3-1.1,0.4c-0.3,0.1-0.7,0.2-0.7,0.7c0,0.5,0.5,0.5,0.9,0.6
			c0.4,0.1,0.9,0.2,1.2,0.5c0.3,0.3,0.3,0.7,0.4,1.1c0.1,0.3,0.2,0.6,0.3,1C44.5,117.9,45.1,117.7,45,117.3z"
      />
    </g>
  </g>
  <g>
    <g>
      <path
        d="M58.1,27.5c-0.1-0.5-0.3-1-0.4-1.5c-0.1-0.4-0.3-0.7-0.6-1c-0.3-0.2-0.6-0.3-0.9-0.4c-0.1,0-0.7-0.2-0.7-0.2
			c0,0,0.6-0.2,0.7-0.2c0.8-0.2,1.3-0.7,1.6-1.5c0.1-0.3,0.2-0.6,0.2-0.9c0-0.1,0.1-0.6,0.2-0.6c0,0,0.3,1.3,0.3,1.5
			c0.2,0.8,0.7,1.3,1.4,1.5c0.2,0,0.3,0.1,0.5,0.1c0.1,0,0.3,0,0.4,0.1c0,0,0,0-0.1,0c-0.1,0-0.3,0.1-0.4,0.1
			c-0.3,0.1-0.7,0.1-1,0.3c-0.4,0.2-0.7,0.6-0.8,1.1c-0.1,0.3-0.1,0.6-0.2,1C58.2,27.1,58,27.4,58.1,27.5c-0.1-0.4-0.7-0.2-0.6,0.2
			c0.2,0.4,0.8,0.6,1.1,0.2c0.1-0.2,0.2-0.5,0.2-0.8c0.1-0.3,0.1-0.7,0.2-1c0.1-0.4,0.4-0.7,0.8-0.8c0.5-0.1,1.9-0.2,1.5-1.1
			c-0.2-0.3-0.6-0.4-0.9-0.4c-0.4-0.1-0.8-0.2-1-0.5c-0.3-0.3-0.3-0.6-0.4-0.9c-0.1-0.4-0.2-0.7-0.3-1.1c-0.1-0.3-0.3-0.6-0.7-0.6
			c-0.4,0-0.5,0.4-0.6,0.7c-0.2,0.7-0.3,1.6-0.9,2c-0.3,0.2-0.7,0.3-1.1,0.4c-0.3,0.1-0.7,0.2-0.7,0.7c0,0.5,0.5,0.5,0.9,0.6
			c0.4,0.1,0.9,0.2,1.2,0.5c0.3,0.3,0.3,0.7,0.4,1.1c0.1,0.3,0.2,0.6,0.3,1C57.6,28.1,58.2,27.9,58.1,27.5z"
      />
    </g>
  </g>
  <g>
    <g>
      <path
        d="M16.3,75.4c0,0.8-0.5,1.5-1.2,1.8c-0.7,0.3-1.6,0-2.1-0.6c-0.5-0.6-0.5-1.5-0.1-2.1c0.4-0.7,1.2-1,1.9-0.9
			C15.7,73.7,16.3,74.5,16.3,75.4c0,0.4,0.6,0.4,0.6,0c0-1-0.6-1.9-1.6-2.3c-1-0.4-2.1-0.1-2.8,0.7c-0.7,0.8-0.8,1.9-0.2,2.8
			c0.5,0.9,1.6,1.3,2.6,1.2c1.2-0.2,2-1.3,2-2.4C16.9,75,16.3,75,16.3,75.4z"
      />
    </g>
  </g>
  <g>
    <g>
      <path
        d="M83.3,56.3c0,0.5-0.3,0.9-0.8,1.1c-0.5,0.2-1,0-1.3-0.4c-0.3-0.4-0.3-0.9-0.1-1.4c0.2-0.4,0.7-0.6,1.2-0.6
			C82.9,55.2,83.3,55.7,83.3,56.3c0,0.4,0.6,0.4,0.6,0c0-0.8-0.5-1.4-1.2-1.7c-0.7-0.3-1.5,0-2,0.5c-0.5,0.6-0.6,1.4-0.2,2.1
			c0.4,0.7,1.1,1,1.9,0.8c0.8-0.2,1.4-0.9,1.4-1.8C83.9,55.9,83.3,55.9,83.3,56.3z"
      />
    </g>
  </g>
  <g>
    <g>
      <path
        d="M62,102.6c0,0.5-0.3,0.9-0.8,1.1c-0.5,0.2-1,0-1.3-0.4c-0.3-0.4-0.3-0.9-0.1-1.4c0.2-0.4,0.7-0.6,1.2-0.6
			C61.6,101.5,62,102,62,102.6c0,0.4,0.6,0.4,0.6,0c0-0.8-0.5-1.4-1.2-1.7c-0.7-0.3-1.5,0-2,0.5c-0.5,0.6-0.6,1.4-0.2,2.1
			c0.4,0.7,1.1,1,1.9,0.8c0.8-0.2,1.4-0.9,1.4-1.8C62.6,102.2,62,102.2,62,102.6z"
      />
    </g>
  </g>
  <g>
    <circle class="st0" cx="45" cy="78.4" r="5.7" />
    <line class="st0" x1="47.9" y1="83.4" x2="49.1" y2="85.6" />
    <path
      class="st0"
      d="M51.8,93.7l-3.4-6C48,86.9,48.3,86,49,85.6h0c0.7-0.4,1.7-0.2,2.1,0.6l3.4,6c0.4,0.7,0.2,1.7-0.6,2.1h0
		C53.1,94.7,52.2,94.4,51.8,93.7z"
    />
  </g>
  <g>
    <g>
      <path
        d="M41.2,37.7c1.1,0,2.2,0,3.3,0c0.2,0,0.3,0,0.5,0c0.4,0,0.4-0.6,0-0.6c-1.1,0-2.2,0-3.3,0c-0.2,0-0.3,0-0.5,0
			C40.8,37.1,40.8,37.7,41.2,37.7L41.2,37.7z"
      />
    </g>
  </g>
  <g>
    <g>
      <path
        d="M82.1,68.3c0.4,0,0.9,0,1.3,0c0.1,0,0.1,0,0.2,0c0.2,0,0.3-0.1,0.3-0.3c0-0.2-0.1-0.3-0.3-0.3c-0.4,0-0.9,0-1.3,0
			c-0.1,0-0.1,0-0.2,0c-0.2,0-0.3,0.1-0.3,0.3C81.8,68.2,81.9,68.3,82.1,68.3L82.1,68.3z"
      />
    </g>
  </g>
  <g>
    <g>
      <path
        d="M26.4,98c0.9,0,1.8,0,2.7,0c0.1,0,0.3,0,0.4,0c0.4,0,0.4-0.6,0-0.6c-0.9,0-1.8,0-2.7,0c-0.1,0-0.3,0-0.4,0
			C26,97.4,26,98,26.4,98L26.4,98z"
      />
    </g>
  </g>
  <g>
    <g>
      <path
        d="M74.9,96.5c0.9,0,1.7,0,2.6,0c0.1,0,0.2,0,0.4,0c0.4,0,0.4-0.6,0-0.6c-0.9,0-1.7,0-2.6,0c-0.1,0-0.2,0-0.4,0
			C74.5,95.9,74.5,96.5,74.9,96.5L74.9,96.5z"
      />
    </g>
  </g>
</svg>
