<?xml version="1.0" encoding="utf-8"?>
<!-- Generator: Adobe Illustrator 24.0.1, SVG Export Plug-In . SVG Version: 6.00 Build 0)  -->
<svg version="1.1" id="Layer_1" xmlns="http://www.w3.org/2000/svg" xmlns:xlink="http://www.w3.org/1999/xlink" x="0px" y="0px"
	 viewBox="0 0 140.5 183.7" style="enable-background:new 0 0 140.5 183.7;" xml:space="preserve">
<g>
	<g>
		<path d="M64.3,38.9c0.7-0.1,1.5-0.2,2.2,0c0.9,0.2,1.6,0.7,2.1,1.4c0.9,1.1,1.1,2.6,0.6,3.9c-0.4,1.3-1.5,2.1-2.8,2.3
			c-1.8,0.4-3.6,0.3-5.4,0.3c-0.9,0-1.8,0-2.7,0c-0.8,0-1.5,0-2.2,0.3c-1.2,0.5-2.3,1.5-3.2,2.4c-2,2-3.3,4.5-4.3,7.1
			c-0.6,1.5-1,3.1-1.3,4.7c-0.2,1.7-0.2,3.5,0,5.3c0.3,3.1,1.2,6.1,2.6,8.8c1.4,2.8,3.3,5.3,5.7,7.3c2.3,1.9,5,3.2,7.2,5.3
			c2.3,2.3,4.1,5,5.3,8c1.1,2.6,1.3,5.7,1.7,8.5c0,0.4,0.6,0.4,0.6,0c-0.3-2.5-0.5-5.2-1.3-7.6c-0.8-2.6-2.4-5.2-4.1-7.3
			c-0.9-1.1-1.9-2.2-3.1-3.1c-1.2-1-2.4-1.7-3.7-2.5c-1.4-0.9-2.7-1.9-3.8-3c-1.2-1.2-2.2-2.6-3-4c-1.7-2.8-3-5.9-3.5-9.1
			c-0.3-1.8-0.4-3.7-0.2-5.5c0.1-1.8,0.6-3.5,1.2-5.1c1-2.8,2.5-5.5,4.7-7.6c1.2-1.1,2.5-2.2,4.1-2.1c1.9,0,3.7,0,5.6,0
			c1.5,0,3.5-0.1,4.8-1c1-0.7,1.6-1.9,1.7-3.1c0.2-1.5-0.3-2.8-1.4-3.9c-1.3-1.3-2.7-1.3-4.4-1.1C63.9,38.3,63.9,38.9,64.3,38.9
			L64.3,38.9z"/>
	</g>
</g>
<g>
	<g>
		<path d="M64.4,81.6c1.3,1.2,2.2,2.7,2.9,4.4c0.7,1.7,1.4,3.4,2,5.1c1.4,3.9,1.3,8.2,0.9,12.2c-0.1,1-0.3,2.1-0.4,3.1
			c-0.1,0.6,0,1.2-0.2,1.8c-0.1,0.4,0.5,0.5,0.6,0.2c0.1-0.5,0.1-1.1,0.2-1.6c0.1-0.8,0.2-1.7,0.3-2.5c0.3-2.2,0.4-4.4,0.3-6.6
			c-0.1-2.1-0.3-4.2-0.9-6.2c-0.6-1.8-1.3-3.6-2-5.4c-0.8-1.8-1.7-3.6-3.2-4.9C64.5,80.9,64.1,81.3,64.4,81.6L64.4,81.6z"/>
	</g>
</g>
<g>
	<g>
		<path d="M81.2,61.9c-1.6,2.1-3.1,4.5-3.9,7c-1,3-1.4,6.4-1.5,9.6c-0.2,5.7,0,11.5-0.7,17.2c-0.2,1.9-0.9,3.8-1.8,5.5
			c-0.8,1.5-1.7,2.8-2.4,4.3c-0.2,0.3,0.3,0.6,0.5,0.3c1.4-2.7,3.2-5.2,3.9-8.2c0.4-1.7,0.5-3.5,0.6-5.3c0.1-2,0.2-3.9,0.3-5.9
			c0.1-5.3,0-10.7,1.2-15.9c0.7-3,2.4-5.8,4.2-8.3C82,61.8,81.4,61.6,81.2,61.9L81.2,61.9z"/>
	</g>
</g>
<g>
	<g>
		<path d="M63.7,40.2c1.1-1.2,0.6-2.8,0.1-4.1c-0.5-1.3-1.4-2.4-2.6-3.1c-1.4-0.9-3.1-1.3-4.8-1c-1.8,0.2-3.5,1.3-4.6,2.7
			c-0.6,0.7-1.1,1.6-1,2.5c0.1,0.8,0.5,1.5,1,2c0.3,0.3,0.7-0.1,0.4-0.4c-0.6-0.7-1.1-1.5-0.8-2.5c0.3-0.9,1-1.6,1.7-2.2
			c1.6-1.4,3.6-1.9,5.6-1.4c1.5,0.4,2.9,1.2,3.8,2.6c0.8,1.2,1.7,3.4,0.6,4.6C63.1,40.1,63.5,40.5,63.7,40.2L63.7,40.2z"/>
	</g>
</g>
<g>
	<g>
		<path d="M46.9,39.8c-1.4,0.1-2.9,0.4-3.6,1.7c-0.6,1-0.5,2.4,0,3.4c0.6,1.3,2.1,2.1,3.5,2.3c1,0.2,2,0.1,3,0c1,0,1.9,0,2.9,0
			c1.8,0,3.7,0,5.5,0c0.4,0,0.4-0.6,0-0.6c-1.6-0.1-3.3-0.1-4.9,0c-1.1,0-2.1,0-3.2,0c-1.1,0-2.3,0.2-3.4-0.1
			c-1.7-0.4-3.1-1.5-3.1-3.3c0-0.7,0.2-1.4,0.6-1.9c0.7-0.7,1.8-0.9,2.8-1C47.3,40.4,47.3,39.8,46.9,39.8L46.9,39.8z"/>
	</g>
</g>
<g>
	<g>
		<path d="M58.4,62.8c-1.1-0.4-2.3-0.4-3.4-0.1c-0.8,0.2-1.8,0.4-2.4,1.2c-0.5,0.7-0.5,1.7-0.1,2.4c0.3,0.8,1.2,1.2,2,1.2
			c0.5,0,1-0.2,1.4-0.5c0.6-0.3,1.1-0.6,1.7-0.7c0.4-0.1,0.2-0.7-0.2-0.6c-0.9,0.2-1.6,0.7-2.4,1c-0.6,0.2-1.4,0.1-1.9-0.4
			c-0.4-0.5-0.5-1.4-0.2-2c0.4-0.7,1.2-0.8,1.9-1c1.1-0.3,2.2-0.3,3.3,0C58.6,63.5,58.8,62.9,58.4,62.8L58.4,62.8z"/>
	</g>
</g>
<g>
	<g>
		<path d="M85.6,96.4c-1.4,1.3-3,2.4-4.8,3c-1.4,0.4-2.8,0.7-4.1,1.3c-0.9,0.4-1.7,0.9-2.4,1.4c-0.8,0.6-1.4,1.2-2.1,1.9
			c-0.7,0.7-1.4,1.4-1.9,2.3c-0.5,0.9-0.7,1.9-1.1,2.9c-0.2,0.3,0.4,0.7,0.5,0.3c0.4-0.9,0.6-2,1.1-2.9c0.5-0.9,1.3-1.6,2-2.3
			c0.8-0.8,1.6-1.5,2.5-2.1c0.7-0.5,1.5-0.8,2.3-1.1c1.4-0.5,2.8-0.8,4.1-1.3c1.7-0.6,3.1-1.7,4.4-2.9
			C86.3,96.6,85.8,96.2,85.6,96.4L85.6,96.4z"/>
	</g>
</g>
<g>
	<g>
		<path d="M61,67.7c-0.2,1.1,0,2.2,0.3,3.3c0.3,1.3,0.8,2.6,1.2,3.9c0.5,1.3,0.9,2.7,1.5,4c0.3,0.8,0.7,1.6,1.1,2.4
			c0.3,0.6,0.6,1.1,0.7,1.7c0.1,0.4,0.7,0.2,0.6-0.2c-0.1-0.5-0.3-1-0.5-1.4c-0.4-0.8-0.8-1.6-1.1-2.4c-0.6-1.3-1-2.7-1.5-4.1
			c-0.4-1.2-0.8-2.4-1.2-3.6c-0.3-1.1-0.6-2.4-0.4-3.5C61.6,67.5,61,67.3,61,67.7L61,67.7z"/>
	</g>
</g>
<g>
	<g>
		<path d="M83.7,52.2c-0.1,0.2-1.4,0.2-1.6,0.2c-0.6,0-1.2,0.1-1.8,0.1c-0.5,0-1.1,0.1-1.6,0.1c-0.3,0-0.6,0-0.7,0.3
			c-0.2,0.6,0.8,1.2,1.2,1.5c0.6,0.5,1.3,1,2,1.5c0.4,0.3,0.9,0.5,1,1c0,0.7-0.4,1.5-0.6,2.2c-0.2,0.5-1.3,3.8,0.4,3.2
			c0.7-0.3,1.3-0.8,1.8-1.3c0.8-0.6,1.5-1.3,2.3-1.8c-0.1,0-0.2,0-0.3,0c1.3,0.7,2.4,1.6,3.7,2.3c0.3,0.2,0.8,0.5,1.1,0.5
			c0.8-0.1,0.4-1.1,0.2-1.5c-0.4-1.2-0.8-2.4-1.1-3.6c-0.1-0.7,0.3-0.9,0.7-1.3c0.4-0.3,0.9-0.7,1.3-1.1c0.5-0.4,1-0.9,1.5-1.3
			c0.3-0.2,0.6-0.4,0.6-0.7c0.1-0.7-0.9-0.7-1.4-0.7c-0.4,0-0.4,0.6,0,0.6c0.2,0,0.3,0,0.5,0c0.4,0,0.2,0.1,0,0.3
			c-0.3,0.2-0.6,0.5-0.9,0.8c-0.8,0.6-1.5,1.3-2.3,1.9c-0.5,0.4-0.7,0.8-0.6,1.5c0.2,0.9,0.5,1.8,0.8,2.7c0.1,0.5,0.3,1,0.5,1.5
			c0.1,0.2,0.3,0.4,0,0.3c-0.5-0.1-0.9-0.5-1.3-0.7c-1-0.6-2-1.3-3-1.9c-0.1-0.1-0.2-0.1-0.3,0c-1.2,0.8-2.3,1.9-3.4,2.7
			c-0.1,0.1-0.5,0.4-0.6,0.4c-0.2,0,0.1-0.8,0.1-1c0.2-1,0.5-1.9,0.8-2.8c0.3-0.9,0.3-1.5-0.5-2.1c-0.5-0.4-1.1-0.8-1.6-1.2
			c-0.3-0.3-0.7-0.5-1-0.8c-0.2-0.1-0.8-0.6-0.7-0.7c0,0,1.5-0.1,1.7-0.1c0.6,0,1.1-0.1,1.7-0.1c0.5,0,1.1,0,1.7-0.1
			c0.3-0.1,0.5-0.2,0.6-0.5C84.4,52,83.8,51.8,83.7,52.2L83.7,52.2z"/>
	</g>
</g>
<g>
	<g>
		<path d="M58.8,64.8c-0.8,0.5-1.4,1.4-1.8,2.2c-0.4,0.8-0.7,1.8-0.5,2.7c0.1,0.4,0.2,0.9,0.6,1.2c0.4,0.4,0.9,0.4,1.4,0.4
			c0.5,0,1-0.1,1.4-0.4c0.4-0.3,0.7-0.8,0.9-1.3c0.6-1.3,1-2.7,0.5-4.2c-0.1-0.4-0.7-0.2-0.6,0.2c0.4,1.1,0.2,2.1-0.2,3.1
			c-0.3,0.8-0.6,1.8-1.6,2c-0.4,0.1-0.9,0.1-1.2-0.2c-0.3-0.2-0.4-0.6-0.4-1c-0.2-0.7,0.1-1.5,0.4-2.2c0.4-0.8,0.9-1.7,1.7-2.1
			C59.4,65.1,59.1,64.6,58.8,64.8L58.8,64.8z"/>
	</g>
</g>
<g>
	<g>
		<path d="M61.5,61.2c0-0.1-0.1-0.3,0-0.5c0-0.1,0.1-0.3,0.2-0.4c0.1-0.3,0.2-0.6,0.3-0.9c0.1-0.6,0-1.2,0-1.9c-0.1-1-0.2-1.9-1-2.6
			c-0.7-0.6-1.9-0.7-2.6,0c-0.8,0.7-1.1,1.8-1,2.8c0.2,1.4,0.8,2.7,1.7,3.8c0.2,0.3,0.7,0,0.5-0.3c-0.6-0.9-1.2-1.8-1.4-2.8
			c-0.3-0.9-0.3-1.9,0.3-2.7c0.5-0.6,1.5-0.7,2.1-0.2c0.7,0.6,0.7,1.5,0.8,2.3c0,0.6,0.1,1.2,0,1.8c-0.1,0.3-0.2,0.6-0.3,0.9
			c-0.1,0.3-0.1,0.5-0.1,0.8C61,61.6,61.6,61.6,61.5,61.2L61.5,61.2z"/>
	</g>
</g>
<g>
	<g>
		<path d="M70.6,70.4c-3.5,1.3-6.3,4.7-5.6,8.6c0,0.2,0.2,0.2,0.4,0.2c1.9-0.5,3.5-1.5,4.6-3.2c0.5-0.8,0.9-1.7,1.1-2.7
			c0.2-1,0.2-1.8-0.1-2.8c-0.1-0.4-0.7-0.2-0.6,0.2c0.3,0.9,0.2,1.6,0,2.5c-0.2,0.9-0.5,1.7-1,2.4c-1,1.5-2.5,2.4-4.2,2.9
			c0.1,0.1,0.2,0.1,0.4,0.2c-0.6-3.5,2-6.7,5.2-7.8C71.2,70.9,71,70.3,70.6,70.4L70.6,70.4z"/>
	</g>
</g>
<g>
	<g>
		<path d="M62.2,62.3c0,0.4,0,0.8,0,1.2c0,0.2,0,0.4,0.1,0.6c0.1,0.5,0.5,0.7,1,0.9c1.1,0.6,1.8,1.5,2.2,2.6
			c0.2,0.6,0.4,1.2,0.1,1.7c-0.3,0.5-0.9,0.8-1.5,0.7c-0.6,0-1.1-0.4-1.4-0.9c-0.4-0.7-0.7-1.3-1.1-2c-0.2-0.3-0.7,0-0.5,0.3
			c0.3,0.6,0.6,1.2,1,1.8c0.3,0.5,0.6,0.9,1,1.1c0.8,0.4,1.9,0.4,2.6-0.2c0.8-0.7,0.8-1.8,0.4-2.7c-0.3-0.9-0.9-1.8-1.6-2.4
			c-0.2-0.2-0.4-0.3-0.7-0.5c-0.2-0.1-0.5-0.2-0.7-0.4c-0.2-0.2-0.2-0.4-0.2-0.7c0-0.4,0-0.8,0-1.2C62.8,61.9,62.2,61.9,62.2,62.3
			L62.2,62.3z"/>
	</g>
</g>
<g>
	<g>
		<path d="M65.1,61.4c0-0.3,0.5-0.4,0.7-0.6c0.3-0.2,0.5-0.5,0.7-0.9c0.4-0.6,0.7-1.4,0.6-2.1c-0.1-0.7-0.8-1.4-1.5-1.6
			c-0.8-0.3-1.7,0.1-2.3,0.6c-0.6,0.5-0.8,1.5-1.6,1.8c-0.3,0.2,0,0.7,0.3,0.5c0.6-0.3,0.9-0.9,1.3-1.5c0.4-0.6,1.2-1,1.9-0.9
			c0.6,0.1,1.2,0.6,1.4,1.2c0.1,0.6-0.3,1.3-0.6,1.8c-0.2,0.3-0.5,0.5-0.8,0.7c-0.3,0.2-0.6,0.5-0.6,0.9
			C64.5,61.8,65.1,61.8,65.1,61.4L65.1,61.4z"/>
	</g>
</g>
<g>
	<g>
		<path d="M57.7,58.7c-0.3,0-0.6-0.2-0.8-0.4c-0.3-0.2-0.6-0.4-0.9-0.6c-0.6-0.3-1.3-0.3-1.9,0c-0.6,0.3-1,1-1.2,1.6
			c-0.2,0.7,0.1,1.5,0.5,2c0.3,0.3,0.6,0.7,1,0.9c0.4,0.2,0.9,0.3,1.3,0.5c0.3,0.2,0.6-0.3,0.3-0.5c-0.3-0.2-0.6-0.3-1-0.4
			c-0.3-0.1-0.6-0.3-0.9-0.6c-0.4-0.4-0.8-1-0.7-1.6c0.1-0.5,0.5-1.1,1-1.4c0.5-0.3,1.1-0.2,1.6,0.1c0.6,0.3,1,1,1.8,1
			C58.1,59.3,58.1,58.7,57.7,58.7L57.7,58.7z"/>
	</g>
</g>
<g>
	<g>
		<path d="M61.7,61.9c0.2,0.3,0.4,0.6,0.8,0.6c0.5,0,0.9-0.4,1.3-0.5c1-0.3,2.1-0.2,3.1,0c0.8,0.1,1.4,0.5,1.6,1.3
			c0.1,0.7-0.1,1.7-0.9,1.9c-0.4,0.1-0.8,0-1.2,0c-0.6,0-1.2,0-1.8,0.1c-0.4,0.1-0.2,0.7,0.2,0.6c0.6-0.1,1.1-0.2,1.7-0.1
			c0.4,0,0.8,0.1,1.2,0c0.9-0.2,1.3-1.1,1.4-1.9c0.1-0.8-0.2-1.5-0.8-2c-0.4-0.3-0.8-0.4-1.2-0.5c-0.5-0.1-1.1-0.2-1.6-0.2
			c-0.6,0-1.2,0-1.8,0.2c-0.3,0.1-0.6,0.3-0.9,0.4c-0.3,0.1-0.4,0-0.6-0.3C62,61.2,61.5,61.5,61.7,61.9L61.7,61.9z"/>
	</g>
</g>
<g>
	<g>
		<path d="M51.1,36.6c-1-0.6-2.5-0.8-3.5-0.2c-1,0.6-1.4,2-1.2,3.2c0.1,0.3,0.2,0.6,0.4,0.9c0.2,0.2,0.5,0.5,0.8,0.6
			c0.2,0.1,0.3,0,0.4-0.1c0.1-0.1,0-0.3-0.1-0.4c-0.2-0.1-0.4-0.2-0.6-0.4c-0.2-0.1-0.2-0.3-0.3-0.5c-0.1-0.5-0.1-1,0-1.5
			c0.1-0.4,0.4-0.9,0.7-1.1c0.4-0.3,0.9-0.4,1.3-0.4c0.6,0,1.2,0.2,1.7,0.5C51.2,37.3,51.5,36.8,51.1,36.6L51.1,36.6z"/>
	</g>
</g>
<g>
	<g>
		<path d="M57.4,78.9c0.4,1.6,1.5,3,2.9,3.9c0.8,0.5,1.6,0.8,2.5,1c0.5,0.1,0.9,0.1,1.4,0.1c0.6,0,1.2,0,1.8-0.1
			c0.4-0.1,0.2-0.7-0.2-0.6c-0.5,0.1-1.1,0.1-1.7,0.1c-0.5,0-0.9,0-1.4-0.1c-0.8-0.1-1.6-0.4-2.3-0.9c-1.3-0.8-2.3-2.1-2.6-3.6
			C57.9,78.4,57.4,78.5,57.4,78.9L57.4,78.9z"/>
	</g>
</g>
<g>
	<g>
		<path d="M84.2,52.3c0.2-1.3,0.6-2.6,1-3.8c0-0.1,0.1-0.3,0.1-0.4c0-0.1,0.1-0.4,0.3-0.4c0.1,0,0.2,0.3,0.2,0.4
			c0.1,0.2,0.2,0.4,0.3,0.6c0.3,0.6,0.5,1.2,0.8,1.8c0.2,0.5,0.3,1.2,0.6,1.6c0.3,0.4,0.7,0.5,1.1,0.5c1.3,0,2.5-0.2,3.8-0.2
			c0.4,0,0.4-0.6,0-0.6c-0.7,0-1.4,0.1-2.1,0.1c-0.6,0-1.3,0.2-1.9,0.1c-0.7-0.1-0.7-1-0.9-1.5c-0.3-0.7-0.6-1.3-0.9-2
			c-0.2-0.4-0.5-1.4-1.1-1.5c-0.6-0.1-0.7,0.6-0.9,1c-0.5,1.3-0.9,2.7-1.1,4.1C83.6,52.5,84.2,52.7,84.2,52.3L84.2,52.3z"/>
	</g>
</g>
<g>
	<g>
		<path d="M58,79c1.1-0.4,2.2,0,3.2,0.5c1,0.4,1.9,0.9,2.6,1.6c0.3,0.3,0.7-0.2,0.4-0.4c-0.9-0.8-1.9-1.3-2.9-1.8
			c-1.1-0.5-2.3-0.9-3.5-0.5C57.5,78.6,57.6,79.1,58,79L58,79z"/>
	</g>
</g>
<g>
	<g>
		<g>
			<path d="M27.9,55.6c-1.1-0.3-2.4-0.1-3,1c-0.3,0.5-0.5,1.2-0.4,1.8c0.1,1,0.1,1.9,0.1,2.9c-0.1,2-0.1,4.1-0.1,6.1
				c0,1,0.3,2.1,1.2,2.7c0.5,0.3,1.1,0.4,1.7,0.5c1,0.1,2,0,3,0c2.2,0,4.3,0,6.5,0c1.3,0,2.8,0.1,3.5-1.3c0.4-0.7,0.3-1.6,0.3-2.3
				c0-1.1,0-2.2,0-3.3c0-1.2,0-2.4-0.1-3.6c0-0.9,0.1-2-0.2-2.9c-0.4-1.4-1.9-1.7-3.2-1.5c-0.4,0-0.4,0.6,0,0.6
				c1.1-0.1,2.4,0,2.7,1.4C40,58.2,40,59,40,59.8c0,0.9,0,1.8,0,2.7c0,1.7,0,3.5,0,5.2c0,0.7-0.1,1.4-0.7,1.8
				c-0.6,0.4-1.3,0.4-2,0.4c-1.7,0-3.5,0-5.2,0c-0.8,0-1.6,0-2.4,0c-0.8,0-1.6,0.1-2.4,0c-1.1-0.1-1.9-0.7-2.1-1.8
				c-0.1-0.6,0-1.3,0-2c0-0.9,0-1.8,0-2.6c0-0.9,0-1.9,0-2.8c0-0.9-0.1-1.7-0.1-2.6c0-1.6,1.3-2.3,2.7-1.9
				C28.2,56.2,28.3,55.7,27.9,55.6L27.9,55.6z"/>
		</g>
	</g>
	<g>
		<g>
			<path d="M27.3,59.1c-1.6-0.2-1.2,1.5-1.2,2.6c0,2.1-0.1,4.2,0,6.2c0.1,1.7,2.3,1.3,3.5,1.3c2-0.1,4.1-0.2,6.1-0.1
				c1.1,0,3.1,0.5,3.4-1c0.2-0.8,0-1.7,0.1-2.5c0-1.1,0-2.1-0.1-3.2C39,61.2,39.7,59,37.9,59c-1.1,0-2.2,0-3.4,0.1
				c-1.5,0-2.9,0-4.4,0C29.2,59.1,28.2,59.2,27.3,59.1c-0.4,0-0.4,0.6,0,0.6c1.6,0.2,3.3,0.1,4.8,0c1.1,0,2.2,0,3.2,0
				c0.8,0,1.7-0.1,2.6,0c0.5,0.1,0.6,0.3,0.6,0.8c0,0.4,0,0.8-0.1,1.2c0,0.9,0.1,1.8,0.1,2.6c0,0.9,0,1.7,0,2.6
				c0,0.5,0.2,1.4-0.5,1.7c-0.3,0.1-0.7,0-1,0c-0.4,0-0.8,0-1.2,0c-0.9,0-1.7,0-2.6,0c-1.7,0-3.4,0.2-5.1,0.2c-0.3,0-1,0.1-1.3-0.2
				c-0.3-0.3-0.2-1.1-0.2-1.4c0-1,0-1.9,0-2.9c0-0.9,0-1.9,0-2.8c0-0.4-0.1-0.8,0-1.2c0-0.4,0.3-0.4,0.6-0.3
				C27.7,59.7,27.7,59.1,27.3,59.1z"/>
		</g>
	</g>
	<g>
		<g>
			<path d="M35.2,61.4c0,0,0.4,0.3,0.4,0.3c0.1,0.2,0,0.3-0.2,0.4c-0.4,0.5-0.8,0.9-1.2,1.4c-0.8,0.9-1.6,1.9-2.5,2.8
				c0.1,0,0.3,0,0.4,0c-0.7-0.8-1.5-1.5-2.2-2.3c-0.1-0.1-0.3-0.2-0.3-0.3c0-0.1,0.2-0.3,0.3-0.3c0.2,0,0.4,0.2,0.5,0.4
				c0.4,0.4,0.8,0.8,1.2,1.2c0.1,0.1,0.3,0.1,0.4,0C33.2,63.8,34.1,62.6,35.2,61.4c0.3-0.3-0.2-0.7-0.4-0.4c-1.1,1.1-2,2.4-3,3.6
				c0.1,0,0.3,0,0.4,0c-0.5-0.5-1-1.1-1.6-1.5c-0.5-0.4-1.2-0.1-1.4,0.5c-0.1,0.3,0.1,0.6,0.3,0.8c0.2,0.3,0.5,0.6,0.7,0.8
				c0.5,0.6,1,1.1,1.6,1.6c0.1,0.1,0.3,0.1,0.4,0c1.1-1.3,2.2-2.6,3.4-3.9c0.4-0.4,1-1,0.6-1.5c-0.3-0.4-1-0.8-1.4-0.4
				C34.5,61.3,34.9,61.7,35.2,61.4L35.2,61.4z"/>
		</g>
	</g>
	<g>
		<g>
			<path d="M29.6,56c2,0.2,3.9,0.2,5.9,0c0.4,0,0.4-0.6,0-0.6c-2,0.2-3.9,0.2-5.9,0C29.2,55.3,29.2,55.9,29.6,56L29.6,56z"/>
		</g>
	</g>
	<g>
		<g>
			<path d="M29.2,55.7c0,0.3,0,0.6-0.1,0.9c0,0.2,0,0.5-0.1,0.7c-0.1,0.1-0.3,0.2-0.5,0.2c-0.2,0-0.2-0.1-0.2-0.3c0-0.4,0-0.7,0-1.1
				c0-0.4,0-0.8,0-1.2c0-0.2,0-0.5,0.2-0.6c0.1-0.1,0.4-0.2,0.5-0.1c0,0,0.1,0.1,0.1,0.2c0,0.1,0.1,0.2,0.1,0.3
				c0,0.1,0.1,0.3,0.1,0.4C29.3,55.3,29.2,55.5,29.2,55.7c0,0.4,0.6,0.4,0.6,0c0-0.2,0-0.5,0-0.7c0-0.2-0.1-0.4-0.1-0.5
				c0-0.3-0.1-0.5-0.3-0.7c-0.3-0.2-0.6-0.2-1-0.1c-0.3,0.1-0.6,0.4-0.7,0.8c-0.1,0.4,0,0.9,0,1.3c0,0.5,0,0.9,0,1.4
				c0,0.3,0.1,0.7,0.4,0.8c0.3,0.1,0.7,0.1,1,0c0.4-0.2,0.5-0.6,0.5-0.9c0-0.4,0.1-0.8,0.1-1.3C29.8,55.3,29.2,55.3,29.2,55.7
				L29.2,55.7z"/>
		</g>
	</g>
	<g>
		<g>
			<path d="M37.4,55.8c0-0.7,0.3-2.1-0.7-2.3c-0.2,0-0.5,0-0.7,0c-0.2,0-0.3,0.1-0.4,0.2c-0.2,0.3-0.3,0.6-0.3,1c0,0.3,0,0.6,0,0.9
				c0,0.4,0,0.8,0,1.2c0,0.3,0.1,0.6,0.2,0.8c0.2,0.2,0.4,0.3,0.6,0.3c0.4,0,0.8,0,1-0.3c0.1-0.2,0.2-0.4,0.2-0.7
				C37.4,56.5,37.4,56.2,37.4,55.8c0-0.3-0.6-0.3-0.6,0.1c0,0.4,0,0.9-0.2,1.2c0,0,0,0.1,0,0.1c0,0,0.1,0,0.1,0c0,0-0.1,0-0.1,0
				c-0.1,0-0.2,0-0.3,0c0,0-0.1,0-0.1,0c0,0-0.1,0,0,0c0,0,0,0-0.1,0c0,0-0.1,0,0,0c0,0,0,0,0,0c0,0,0,0.1,0,0c0-0.1,0,0,0,0
				c0,0,0,0,0-0.1c0,0.1,0,0,0,0c0-0.1,0-0.2-0.1-0.3c0-0.5,0-1.1,0-1.6c0-0.3,0-0.5,0.1-0.8c0,0,0-0.1,0-0.1c0,0,0-0.1,0,0
				c0,0,0.1-0.2,0-0.1c0,0,0,0,0,0c0,0,0,0,0,0c0,0,0,0,0,0c0,0,0,0,0,0c-0.1,0-0.1,0,0,0c0.1,0,0.2,0,0.2,0c0.1,0,0.2,0,0.3,0
				c0,0,0.1,0,0.1,0c0.1,0.1,0.1,0.2,0.1,0.3c0,0.4,0,0.9,0,1.3C36.9,56.1,37.5,56.1,37.4,55.8L37.4,55.8z"/>
		</g>
	</g>
</g>
<g>
	<g>
		<g>
			<path d="M31.9,81.7c0.5,0.4,0.5,1,0.7,1.5c0.2,0.6,0.4,1.1,0.6,1.7c0.5,1.1,1.1,2.2,1.8,3.2c0.6,1,1.2,1.9,2,2.7
				c0.8,0.8,1.7,1.4,2.6,2.1c1.1,0.9,2.5,1.4,3.7,1.8c1.9,0.6,3.8,1.1,5.7,1.3c1.9,0.2,3.8,0.1,5.7,0.4c1.8,0.3,3.5,0.9,5.1,1.7
				c2.7,1.3,5,3.3,7,5.4c0.7,0.8,1.4,1.6,2,2.5c0.2,0.2,0.6,1.1,1,1c0.4,0,0.4-0.6,0-0.6c0.2,0,0.2,0.1,0.1,0c0-0.1-0.1-0.1-0.1-0.2
				c-0.2-0.2-0.3-0.5-0.5-0.7c-0.6-0.8-1.2-1.5-1.8-2.2c-1.9-2.1-4.1-4-6.6-5.4c-1.4-0.8-3-1.4-4.6-1.9c-1.9-0.5-3.7-0.5-5.6-0.6
				c-1.9,0-3.8-0.4-5.7-1c-1.6-0.4-3.3-0.9-4.6-1.8c-0.9-0.5-1.7-1.3-2.5-1.9c-1.1-0.9-1.7-1.9-2.5-3.1c-0.7-1.2-1.5-2.4-2-3.7
				c-0.4-1-0.5-2.3-1.3-2.9C31.9,80.9,31.6,81.4,31.9,81.7L31.9,81.7z"/>
		</g>
	</g>
	<g>
		<g>
			<path d="M36.9,88.3c1.6-0.8,3-2.1,3.6-3.9c0.5-1.6,0.3-3.4-0.1-5c-0.1-0.4-0.2-1.3-0.7-1.5c-0.5-0.2-1.1,0.4-1.5,0.7
				c-1.5,1.1-2.9,2.5-3.3,4.4c-0.3,1.2-0.2,2.4,0.2,3.5c0.2,0.6,0.9,2.7,1.8,1.6c0.2-0.3-0.2-0.7-0.4-0.4c-0.2,0.2-0.3-0.3-0.4-0.4
				c-0.1-0.2-0.2-0.4-0.3-0.7c-0.2-0.4-0.3-0.8-0.3-1.3c-0.1-0.9-0.1-1.8,0.2-2.6c0.5-1.5,1.7-2.7,2.9-3.6c0.1-0.1,0.8-0.7,1-0.6
				c0.1,0.1,0.2,0.4,0.2,0.6c0.1,0.4,0.2,0.7,0.3,1.1c0.3,1.2,0.3,2.7,0,4c-0.5,1.7-1.8,2.8-3.3,3.6C36.2,87.9,36.5,88.4,36.9,88.3
				L36.9,88.3z"/>
		</g>
	</g>
	<g>
		<g>
			<path d="M32.3,81.4c0.1-0.5-0.1-1-0.3-1.4c-0.3-0.5-0.5-1-0.9-1.4c-0.6-0.9-1.3-1.6-2.2-2.1c-2-1.1-4.1-0.9-6.2-0.6
				c-0.2,0-0.3,0.1-0.3,0.3c0.1,1.2,0.8,2.2,1.5,3.1c0.6,0.8,1.4,1.6,2.3,2.2c1.7,1.1,4.5,1.6,6.1,0.1c0.3-0.3-0.1-0.7-0.4-0.4
				c-0.8,0.7-1.9,0.8-2.9,0.6c-0.9-0.1-1.8-0.4-2.5-0.9c-0.7-0.5-1.4-1.2-1.9-1.9c-0.6-0.8-1.3-1.7-1.4-2.8
				c-0.1,0.1-0.2,0.2-0.3,0.3c1.9-0.2,3.8-0.4,5.6,0.4c0.8,0.4,1.5,0.9,2.1,1.7c0.3,0.4,0.6,0.9,0.9,1.4c0.3,0.4,0.6,0.9,0.5,1.4
				C31.7,81.6,32.3,81.8,32.3,81.4L32.3,81.4z"/>
		</g>
	</g>
	<g>
		<g>
			<path d="M36.6,89.8c-0.8-0.3-1.4-0.9-2.1-1.3c-0.8-0.4-1.6-0.7-2.5-0.9c-0.8-0.1-1.6-0.1-2.4,0c-0.8,0.1-1.7,0.2-2.2,0.8
				c-0.1,0.1-0.1,0.2,0,0.4c1.1,1.7,2.6,3,4.5,3.6c2.1,0.6,4.4,0.4,6-1.1c0.3-0.3-0.1-0.7-0.4-0.4c-1.5,1.4-3.7,1.5-5.6,0.9
				c-1.7-0.5-3.1-1.8-4-3.3c0,0.1,0,0.2,0,0.4c0.5-0.6,1.7-0.6,2.4-0.7c0.7-0.1,1.5,0,2.2,0.2c0.7,0.2,1.5,0.5,2.1,0.9
				c0.6,0.4,1.1,0.8,1.8,1.1C36.7,90.4,37,89.9,36.6,89.8L36.6,89.8z"/>
		</g>
	</g>
	<g>
		<g>
			<path d="M38,81.2c-1,2.1-1.6,4.3-1.7,6.7c0,0.4,0.6,0.4,0.6,0c0.2-2.2,0.7-4.4,1.6-6.4C38.6,81.1,38.1,80.8,38,81.2L38,81.2z"/>
		</g>
	</g>
	<g>
		<g>
			<path d="M25.4,78c2.3,0.7,4.1,2.2,5.9,3.7c0.3,0.2,0.7-0.2,0.4-0.4c-1.9-1.5-3.8-3.1-6.2-3.8C25.2,77.3,25.1,77.9,25.4,78
				L25.4,78z"/>
		</g>
	</g>
	<g>
		<g>
			<path d="M32.3,70.4c-0.1,0.6-0.1,1.2-0.2,1.8C32,73.3,32,74.4,32,75.6c-0.1,2.1-0.2,4.2,0.2,6.3c0.1,0.4,0.6,0.2,0.6-0.2
				c-0.4-2-0.2-4.1-0.2-6.1c0-1.1,0.1-2.1,0.1-3.2c0-0.6,0-1.2,0.2-1.8C33,70.2,32.4,70,32.3,70.4L32.3,70.4z"/>
		</g>
	</g>
</g>
<g>
	<g>
		<path d="M103.9,72.8c-0.3,1.7-0.9,3.3-1.7,4.8c-1,2-2.1,3.9-3.5,5.6c-0.6,0.8-1.3,1.6-2.1,2.3c-0.8,0.8-1.7,1.4-2.6,2
			c-1.4,0.9-2.5,2-3.7,3.2c-0.7,0.7-1.3,1.6-1.9,2.4c-0.9,1.2-1.8,2.3-3,3.3c-0.3,0.2,0.1,0.7,0.4,0.4c1-0.8,1.9-1.8,2.6-2.8
			c0.6-0.8,1.2-1.7,1.9-2.5c1.1-1.3,2.3-2.4,3.7-3.3c0.9-0.6,1.8-1.2,2.6-1.9c0.8-0.7,1.5-1.5,2.2-2.4c1.4-1.7,2.5-3.5,3.5-5.5
			c0.9-1.7,1.7-3.6,2-5.5C104.6,72.6,104,72.4,103.9,72.8L103.9,72.8z"/>
	</g>
</g>
<g>
	<g>
		<path d="M91.7,91.4c1.2,1.4,2.8,2.5,4.7,2.6c1.8,0.1,3.5-0.6,5-1.4c0.4-0.2,1-0.5,0.9-1.1c-0.1-0.2-0.2-0.4-0.4-0.6
			c-0.3-0.3-0.7-0.6-1.1-0.9c-1.6-1.2-3.4-2-5.4-1.8c-1.1,0.1-2.1,0.5-2.9,1.2C92.1,89.9,90.7,90.8,91.7,91.4
			c0.4,0.1,0.7-0.4,0.4-0.6c-0.2-0.1,0.2-0.4,0.2-0.4c0.2-0.1,0.3-0.3,0.5-0.4c0.3-0.2,0.6-0.4,1-0.6c0.7-0.4,1.6-0.6,2.4-0.6
			c1.6,0,3.1,0.7,4.3,1.7c0.3,0.2,0.6,0.4,0.8,0.7c0.1,0.1,0.4,0.3,0.4,0.4c0,0.2-1.1,0.6-1.3,0.7c-1.2,0.6-2.6,1-4,1
			c-1.8,0-3.2-1.1-4.4-2.4C91.9,90.7,91.5,91.2,91.7,91.4L91.7,91.4z"/>
	</g>
</g>
<g>
	<g>
		<path d="M90.2,91.5c0.2-0.9,0.6-1.6,0.8-2.5c0.2-0.8,0.3-1.7,0.2-2.5c-0.1-0.8-0.3-1.6-0.6-2.4c-0.3-0.7-0.6-1.5-1.3-1.9
			c-0.1-0.1-0.3-0.1-0.4,0c-1.5,1.5-2.5,3.4-2.5,5.6c0,2.1,0.7,4.1,2.5,5.3c0.3,0.2,0.6-0.3,0.3-0.5c-1.6-1.1-2.2-3-2.1-4.9
			c0.1-1.9,1-3.6,2.3-5c-0.1,0-0.2,0-0.4,0c0.6,0.3,1,1.4,1.2,2.1c0.2,0.7,0.4,1.5,0.4,2.2c0,0.7-0.1,1.5-0.3,2.2
			c-0.2,0.7-0.6,1.4-0.7,2.1C89.6,91.7,90.1,91.9,90.2,91.5L90.2,91.5z"/>
	</g>
</g>
<g>
	<g>
		<path d="M99.4,83.5c2,1.2,4.4,0.8,6.3-0.3c1.7-1,2.8-2.6,3.5-4.4c0.1-0.1,0-0.3-0.1-0.3c-0.6-0.5-1.5-0.4-2.2-0.3
			c-0.8,0-1.7,0.2-2.4,0.5c-0.8,0.3-1.5,0.7-2.1,1.2c-0.7,0.6-1.2,1.3-2,1.8c-0.3,0.2,0,0.7,0.3,0.5c0.6-0.4,1.1-1,1.6-1.5
			c0.6-0.6,1.3-1,2.1-1.3c0.7-0.3,1.4-0.5,2.2-0.6c0.7-0.1,1.7-0.2,2.3,0.2c0-0.1-0.1-0.2-0.1-0.3c-0.6,1.6-1.6,3-3.1,3.9
			c-1.7,1-4,1.4-5.8,0.3C99.4,82.8,99.1,83.3,99.4,83.5L99.4,83.5z"/>
	</g>
</g>
<g>
	<g>
		<path d="M98.9,90.9c-2.3-0.5-4.6-0.5-6.9-0.1c-0.4,0.1-0.2,0.6,0.2,0.6c2.2-0.4,4.4-0.3,6.6,0.1C99.1,91.6,99.3,91,98.9,90.9
			L98.9,90.9z"/>
	</g>
</g>
<g>
	<g>
		<g>
			<path d="M85.5,128.6c-0.5,0.1-0.7,0.5-1.1,0.8c-0.5,0.5-1.1,1-1.6,1.5c-0.6,0.5-1.2,0.9-1.8,1.3c-0.2,0.1-0.3,0.2-0.5,0.4
				c-0.2,0.3-0.2,0.6-0.5,0.7c-0.1,0.1-0.2,0.2-0.1,0.3c0.8,2.2,3.8-0.3,4.8-1c1.1-0.8,2.2-1.6,3.3-2.5c0.8-0.6,1.5-1.4,2-2.3
				c0.5-1,0.7-2,1-3c0.2-0.6,0.4-1.3,0.6-1.9c0.2-0.6,0.3-1.3,0.4-2c0.6-2.4,1.5-4.8,1.7-7.3c0.2-4.1-1.8-8.3-5.4-10.5
				c-3.1-1.9-7.3-2.2-10.8-1.1c-2.2,0.7-3.9,2-5.4,3.8c-0.9,1-1.6,2.1-2.2,3.3c-0.2,0.4-0.5,0.7-0.5,1.2c0,0.4,0,0.7,0,1.1
				c0,0.4,0.6,0.4,0.6,0c0-0.3,0-0.5,0-0.8c0-0.5,0.1-0.7,0.4-1.1c0.5-0.9,1.1-1.9,1.8-2.7c1.2-1.5,2.5-2.9,4.3-3.7
				c3.1-1.4,7-1.4,10.1-0.2c3.5,1.4,5.8,4.7,6.4,8.3c0.4,2.3,0,4.4-0.6,6.6c-0.3,1-0.6,2.1-0.9,3.2c-0.1,0.5-0.2,1.1-0.4,1.6
				c-0.2,0.6-0.4,1.2-0.6,1.8c-0.3,1.1-0.5,2.2-1,3.2c-0.6,1.1-1.4,1.8-2.5,2.5c-1.1,0.8-2.2,1.6-3.2,2.4c-0.6,0.5-2.8,2.2-3.2,0.9
				c0,0.1-0.1,0.2-0.1,0.3c0.5-0.2,0.5-0.8,0.9-1.1c0.5-0.4,1.1-0.7,1.5-1.1c0.5-0.4,1-0.9,1.5-1.3c0.2-0.2,0.5-0.4,0.7-0.7
				c0.2-0.2,0.4-0.5,0.7-0.5C86.1,129.1,85.9,128.5,85.5,128.6L85.5,128.6z"/>
		</g>
	</g>
	<g>
		<g>
			<path d="M69.9,109.8c-1-1.7-1.9-3.4-3.3-4.8c-1.2-1.2-2.6-2.1-4.2-2.7c-2.9-1.1-6.2-1-9.1,0.1c-2.9,1.1-5.2,3.4-6.3,6.3
				c-0.7,1.9-0.8,4-0.7,6c0,1,0.2,1.9,0.5,2.9c0.3,1,0.8,2,1.1,3c0.6,2.1,0.7,4.3,1.5,6.4c0.4,0.8,0.9,1.6,1.5,2.3
				c0.4,0.5,1.2,1.5,2,1.3c0.4-0.1,0.2-0.7-0.2-0.6c-0.5,0.2-1.5-1.3-1.8-1.7c-0.5-0.7-0.9-1.4-1.2-2.2c-0.6-1.7-0.7-3.4-1.1-5.1
				c-0.5-1.9-1.5-3.6-1.7-5.6c-0.2-1.7-0.1-3.7,0.3-5.4c1.5-6.1,8.3-8.9,14-7.4c1.7,0.5,3.3,1.4,4.6,2.6c0.7,0.7,1.4,1.4,1.9,2.2
				c0.6,0.9,1,1.8,1.6,2.7C69.5,110.4,70.1,110.1,69.9,109.8L69.9,109.8z"/>
		</g>
	</g>
	<g>
		<g>
			<path d="M81.1,149c-0.4-0.5-0.6-1.1-0.7-1.8c-0.1-0.7-0.3-1.3-0.4-2c-0.1-1,0.1-2,0.6-2.9c1.2-2,3.6-3,5.4-4.4
				c2.1-1.6,3.5-3.7,4.9-5.9c0.7-1.1,1.4-2.3,1.9-3.6c0.5-1.3,0.7-2.8,1-4.2c0.1-0.8,0.3-1.6,0.4-2.4c0.1-0.5,0.2-1-0.1-1.5
				c-0.2-0.4-0.7-0.7-1.2-0.6c-0.2,0-0.4,0.1-0.5,0.2c-0.2,0.1-0.5,0.6-0.7,0.6c-0.4,0-0.4,0.6,0,0.6c0.5,0,0.6-0.3,0.9-0.6
				c0.4-0.3,0.9-0.3,1,0.3c0.1,0.3,0,0.6-0.1,0.9c-0.2,1.5-0.4,2.9-0.7,4.4c-0.5,2.7-2.1,5.1-3.6,7.3c-0.8,1.1-1.5,2.2-2.5,3.1
				c-0.9,0.8-2,1.5-3,2.2c-1.5,1-3.3,2.2-4,4c-0.4,1-0.4,2-0.2,3.1c0.1,0.6,0.3,1.2,0.4,1.9c0.1,0.6,0.3,1.2,0.8,1.7
				C80.9,149.7,81.4,149.3,81.1,149L81.1,149z"/>
		</g>
	</g>
	<g>
		<g>
			<path d="M48.2,120.7c-0.4-0.1-0.6-0.7-1-0.9c-0.3-0.2-0.7-0.2-1.1-0.1c-0.3,0.1-0.5,0.4-0.5,0.8c-0.1,0.6,0,1.3,0.1,2
				c0.2,1.3,0.4,2.7,0.6,4c0.2,1.2,0.6,2.3,1.1,3.3c0.3,0.5,0.6,1,0.9,1.5c0.4,0.6,0.7,1.2,1,1.8c0.5,1,1.1,1.9,1.9,2.8
				c1.8,1.9,4.2,3.1,6.1,5c1,1,1.6,2.2,1.6,3.6c0,0.7-0.2,1.4-0.4,2.1c-0.2,0.7-0.3,1.5-0.7,2.1c-0.2,0.3,0.3,0.6,0.5,0.3
				c0.5-0.9,0.8-2.1,1-3.1c0.2-1,0.2-2-0.1-3c-0.7-2.2-2.8-3.6-4.6-5c-1.9-1.5-3.8-2.8-4.8-5.1c-0.2-0.5-0.5-1-0.8-1.5
				c-0.4-0.5-0.7-1-1-1.6c-0.6-1.1-1-2.2-1.2-3.4c-0.3-1.5-0.5-3-0.7-4.5c0-0.4,0-0.7,0-1.1c0-0.6,0.5-0.6,0.9-0.3
				c0.3,0.3,0.5,0.7,1,0.8C48.4,121.4,48.6,120.8,48.2,120.7L48.2,120.7z"/>
		</g>
	</g>
	<g>
		<g>
			<path d="M65.4,150c0.5-2.6,1.2-5.1,1.6-7.8c0.2-1.1,0.3-2.2,0.1-3.3c-0.2-1.1-0.6-2.1-1.1-3c-1.2-2-3-3.7-4.5-5.5
				c-0.8-1-1.5-2-2.4-2.9c-0.5-0.6-1.4-1.1-2.2-0.7c-0.9,0.5-0.9,1.6-0.5,2.4c0.3,0.6,0.6,1.1,1,1.6c0.4,0.5,1,1.2,1,1.8
				c0,0.4,0.6,0.4,0.6,0c-0.1-0.8-0.7-1.5-1.1-2.1c-0.5-0.7-1.6-1.9-1.1-2.8c0.7-1.3,2.2,0.7,2.7,1.2c0.7,0.9,1.4,1.7,2.1,2.6
				c1.3,1.6,2.9,3.1,3.9,4.9c0.5,0.9,0.9,1.9,1,2.9c0.1,1.1,0,2.2-0.2,3.2c-0.4,2.5-1,4.9-1.6,7.4C64.7,150.3,65.3,150.4,65.4,150
				L65.4,150z"/>
		</g>
	</g>
	<g>
		<g>
			<path d="M81.3,132.4c-0.2-0.5,0.5-1.2,0.8-1.6c0.3-0.6,0.7-1.2,0.9-1.8c0.4-0.8,0.8-1.7,0-2.4c-1.8-1.5-3.8,2.3-4.7,3.3
				c-1.5,1.9-3.5,3.4-4.8,5.5c-1.2,1.9-1.6,3.9-1.4,6.1c0.2,2.8,0.7,5.7,1.4,8.4c0.1,0.4,0.7,0.2,0.6-0.2c-0.6-2.2-1-4.4-1.2-6.6
				c-0.2-2.1-0.4-4.2,0.5-6.2c0.9-1.9,2.4-3.4,3.9-4.9c0.7-0.8,1.5-1.6,2.1-2.4c0.7-0.9,1.2-1.9,2.2-2.5c0.3-0.2,0.7-0.4,1.1-0.2
				c0.4,0.2,0.4,0.7,0.2,1.1c-0.2,0.6-0.5,1.3-0.9,1.8c-0.3,0.5-0.6,1-0.9,1.5c-0.3,0.4-0.4,0.7-0.2,1.1
				C80.8,132.9,81.4,132.8,81.3,132.4L81.3,132.4z"/>
		</g>
	</g>
	<g>
		<g>
			<path d="M48.6,122.2c0.6,0.8,1.4,1.5,1.9,2.4c0.5,1,0.5,2.1,0.9,3.1c0.2,0.5,0.5,0.9,0.7,1.4c0.2,0.5,0.3,1,0.6,1.4
				c0.2,0.4,0.7,0.6,1,0.9c0.4,0.3,0.7,0.7,1.1,1c0.8,0.7,1.6,1.4,2.5,1.8c0.6,0.3,1.5,0.7,2-0.1c0.3-0.5,0.2-1.3-0.2-1.7
				c-0.4-0.3-0.8-0.5-1.2-0.8c-0.4-0.4-0.8-0.8-1.3-1.2c-1-0.9-1.9-1.8-2.8-2.8c-0.5-0.5-0.9-1-1.3-1.6c-0.3-0.4-0.5-0.9-1-1
				c-0.4-0.1-0.5,0.5-0.2,0.6c0.3,0.1,0.7,0.8,0.9,1.1c0.3,0.4,0.7,0.8,1,1.2c0.7,0.7,1.3,1.4,2.1,2.1c0.7,0.7,1.4,1.4,2.1,2
				c0.3,0.2,0.6,0.5,1,0.6c0.4,0.2,0.8,0.5,0.5,1c-0.5,1.2-4.1-2.2-4.7-2.7c-0.3-0.3-0.6-0.5-0.9-0.8c-0.3-0.4-0.4-0.9-0.6-1.3
				c-0.4-0.9-1-1.6-1.1-2.7c-0.1-0.9-0.3-1.7-0.9-2.5c-0.5-0.7-1.1-1.4-1.7-2.1C48.8,121.5,48.4,121.9,48.6,122.2L48.6,122.2z"/>
		</g>
	</g>
	<g>
		<g>
			<path d="M91.6,120.7c-0.4,0-0.6,0.2-0.7,0.5c-0.3,0.6-0.6,1.1-1,1.7c-0.3,0.5-0.7,1.1-1,1.6c-0.4,0.6-0.7,1.2-1.2,1.6
				c-0.7,0.7-1.8,1.4-2.2,2.4c-0.2,0.5-0.1,1-0.3,1.5c-0.2,0.5-0.3,1-0.2,1.5c0.1,0.4,0.7,0.2,0.6-0.2c-0.1-0.5,0.1-1,0.2-1.4
				c0.1-0.4,0-0.9,0.2-1.3c0.2-0.4,0.6-0.8,1-1.1c0.4-0.4,0.8-0.7,1.2-1.1c0.7-0.8,1.2-1.7,1.7-2.6c0.3-0.5,0.6-1,0.9-1.5
				c0.1-0.2,0.3-0.4,0.4-0.7c0.1-0.1,0.1-0.4,0.3-0.4C91.9,121.3,91.9,120.7,91.6,120.7L91.6,120.7z"/>
		</g>
	</g>
	<g>
		<g>
			<path d="M88,126c0,0.8-0.3,1.6-0.6,2.4c-0.2,0.4-0.4,0.7-0.6,1.1c-0.2,0.3-0.4,0.6-0.4,1.1c0,0.4,0.6,0.4,0.6,0
				c0-0.4,0.3-0.7,0.5-1c0.2-0.4,0.4-0.7,0.6-1.1c0.4-0.8,0.6-1.6,0.6-2.4C88.6,125.6,88,125.6,88,126L88,126z"/>
		</g>
	</g>
	<g>
		<g>
			<path d="M72,140.1c-0.9,0.5-1.8,1.1-2.6,1.6c0.1,0,0.2,0,0.3,0c-0.8-0.5-1.6-1-2.5-1.5c-0.3-0.2-0.6,0.3-0.3,0.5
				c0.8,0.5,1.6,1,2.5,1.5c0.1,0.1,0.2,0.1,0.3,0c0.9-0.5,1.8-1.1,2.6-1.6C72.6,140.5,72.3,139.9,72,140.1L72,140.1z"/>
		</g>
	</g>
	<g>
		<g>
			<path d="M53.9,128.7c-0.3,0.5-0.2,1,0,1.4c0.1,0.2,0.2,0.4,0.2,0.6c0,0.2-0.1,0.4-0.1,0.6c0,0.4,0.6,0.4,0.6,0
				c0-0.2,0.1-0.4,0.1-0.6c0-0.2-0.1-0.5-0.2-0.7c-0.2-0.3-0.3-0.7-0.1-1.1C54.6,128.7,54,128.4,53.9,128.7L53.9,128.7z"/>
		</g>
	</g>
</g>
<g>
	<g>
		<path d="M61.8,61.2c-0.6-0.2-1.1-0.5-1.7-0.4c-0.4,0-0.8,0.2-1.1,0.5c-0.6,0.6-1,1.5-0.9,2.3c0,0.2,0.1,0.4,0.2,0.6
			c0.1,0.3,0.3,0.6,0.5,0.8c0.3,0.3,0.7-0.2,0.4-0.4c-0.2-0.2-0.3-0.4-0.4-0.7c-0.1-0.2-0.1-0.3-0.1-0.5c0-0.4,0.2-0.8,0.4-1.2
			c0.2-0.3,0.5-0.7,0.8-0.8c0.6-0.2,1.2,0.2,1.8,0.4C62,61.9,62.2,61.4,61.8,61.2L61.8,61.2z"/>
	</g>
</g>
<g>
	<g>
		<path d="M58.9,65.2c0.6,0.4,1.3,0.8,2,0.6c0.7-0.2,1.1-0.8,1.6-1.3c0.3-0.3-0.2-0.7-0.4-0.4c-0.2,0.3-0.5,0.5-0.8,0.8
			c-0.1,0.1-0.2,0.2-0.3,0.2c-0.1,0-0.1,0.1-0.2,0.1c-0.1,0-0.1,0-0.1,0c-0.2,0.1-0.4,0.1-0.6,0c-0.3-0.1-0.7-0.3-0.9-0.5
			C58.9,64.5,58.6,65,58.9,65.2L58.9,65.2z"/>
	</g>
</g>
<g>
	<g>
		<g>
			<path d="M111.2,56c-1.1-0.5-2.6-0.4-3.8-0.2c-1.3,0.2-2.5,0.6-3.5,1.3c-2.2,1.4-3.9,3.7-4.3,6.3c-0.8,5.4,3.5,11.1,9.1,11.2
				c1.5,0,2.9-0.1,4.3-0.7c0.6-0.3,1.2-0.6,1.8-1.1c0.5-0.4,1.2-1,1.2-1.7c0-0.2-0.1-0.3-0.3-0.3c-1.7,0-3.4,0.4-5.1-0.2
				c-0.8-0.3-1.5-0.7-2.1-1.3c-0.8-0.7-1.2-1.4-0.7-2.4c0.1-0.1,0-0.3,0-0.4c-0.4-0.4-0.8-0.8-1.1-1.3c-0.3-0.4-0.5-0.9-0.6-1.4
				c-0.3-1-0.2-2,0.1-2.9c0.8-2.2,2.9-3.8,5.1-4.5c0.4-0.1,0.2-0.7-0.2-0.6c-2.4,0.7-4.7,2.5-5.5,4.9c-0.4,1-0.4,2.2-0.1,3.2
				c0.1,0.5,0.4,1.1,0.7,1.6c0.4,0.5,0.8,0.9,1.2,1.4c0-0.1,0-0.2,0-0.4c-0.4,0.8-0.5,1.5,0,2.3c0.5,0.8,1.4,1.4,2.2,1.9
				c0.8,0.4,1.7,0.7,2.6,0.7c0.5,0,1.1,0,1.6,0c0.7-0.1,1.3-0.1,2-0.1c-0.1-0.1-0.2-0.2-0.3-0.3c0,0.6-1,1.3-1.4,1.6
				c-0.5,0.3-1,0.6-1.6,0.8c-1.1,0.4-2.3,0.5-3.4,0.5c-2.4,0-4.5-1.1-6.2-2.8c-1.7-1.9-2.7-4.3-2.6-6.9c0.1-2.5,1.4-4.6,3.3-6.2
				c1-0.8,2.1-1.4,3.3-1.6c0.6-0.1,1.3-0.2,1.9-0.2c0.7,0,1.5,0,2.2,0.2C111.3,56.7,111.6,56.2,111.2,56L111.2,56z"/>
		</g>
	</g>
	<g>
		<g>
			<path d="M113.6,62.1C113.6,62,113.6,62.1,113.6,62.1C113.6,62,113.6,62.1,113.6,62.1C113.6,62,113.6,61.9,113.6,62.1
				c0,0,0-0.1,0-0.1c0-0.1,0,0,0,0c0,0,0,0,0.1-0.1c0,0,0.1-0.1,0.1-0.1c0.1,0,0,0,0,0c0,0,0,0,0.1-0.1c0.1,0,0.1-0.1,0.2-0.1
				c0.1-0.1,0.2-0.1,0.3-0.2c0.3-0.2,0.5-0.3,0.7-0.6c0.2-0.3,0.4-0.6,0.7-0.8c0.1-0.2,0.1-0.4-0.1-0.5c-0.8-0.2-1.6-0.3-2.4,0
				c-0.2,0.1-0.3,0.2-0.2,0.4c0,0.1,0.2,0.3,0.4,0.2c0.3-0.1,0.7-0.2,1-0.2c0.4,0,0.7,0.1,1.1,0.2c0-0.2-0.1-0.3-0.1-0.5
				c-0.3,0.3-0.5,0.6-0.7,0.9c-0.2,0.2-0.4,0.4-0.6,0.5c-0.5,0.3-1.1,0.6-0.9,1.3c0,0.2,0.2,0.3,0.4,0.2
				C113.6,62.4,113.6,62.2,113.6,62.1L113.6,62.1z"/>
		</g>
	</g>
	<g>
		<g>
			<path d="M107.4,69c0,0-0.1,0.1-0.2,0.1c0,0-0.1,0-0.1,0.1c0,0,0,0,0,0c0,0,0,0-0.1,0c-0.2,0.1-0.3,0.1-0.5,0.1
				c-0.4,0.1-0.7,0.1-1.1,0.3c-0.1,0.1-0.2,0.3-0.1,0.4c0.1,0.1,0.3,0.2,0.4,0.1c0.1-0.1,0.1-0.1,0.2-0.1c0.1,0,0.2-0.1,0.3-0.1
				c0.2,0,0.4-0.1,0.5-0.1c0.4-0.1,0.8-0.2,1.1-0.5c0.1-0.1,0.1-0.3,0-0.4C107.7,68.9,107.6,68.9,107.4,69L107.4,69z"/>
		</g>
	</g>
	<g>
		<g>
			<path d="M111.8,62.3c-0.5,0.3-0.8,0.7-1.1,1.2c-0.1,0.2-0.2,0.4-0.4,0.7c0,0-0.1,0.1,0,0c0,0,0,0-0.1,0.1c0,0,0,0,0,0
				c0,0,0,0-0.1,0c0.1,0,0,0,0,0c0,0-0.1,0,0,0c0,0,0,0,0,0c0,0-0.1,0-0.1,0c-0.2,0-0.3,0.1-0.3,0.3c0,0.2,0.1,0.3,0.3,0.3
				c0.3,0,0.5-0.1,0.7-0.2c0.2-0.2,0.3-0.5,0.4-0.7c0.1-0.2,0.3-0.5,0.4-0.6c0.2-0.2,0.4-0.4,0.6-0.5c0.1-0.1,0.2-0.3,0.1-0.4
				C112.1,62.2,111.9,62.2,111.8,62.3L111.8,62.3z"/>
		</g>
	</g>
	<g>
		<g>
			<path d="M113.3,62.4c0.8,0,1.7-0.1,2.5-0.1c0.4,0,0.4-0.6,0-0.6c-0.8,0-1.7,0.1-2.5,0.1C112.9,61.8,112.9,62.4,113.3,62.4
				L113.3,62.4z"/>
		</g>
	</g>
	<g>
		<g>
			<path d="M104,64.8C104,64.8,104,64.8,104,64.8C104,64.8,104,64.8,104,64.8c-0.1,0.1-0.1,0.1-0.1,0.1c0,0-0.1,0-0.1,0.1
				c0,0,0,0,0,0c0,0,0,0,0,0c-0.1,0-0.1,0-0.2,0c0,0-0.1,0,0,0c0,0,0,0,0,0c0,0-0.1,0-0.1,0c-0.3,0-0.5,0-0.8,0
				c-0.2,0-0.3,0.1-0.3,0.3c0,0.2,0.1,0.3,0.3,0.3c0.3,0,0.6,0,0.9,0c0.4,0,0.7-0.2,1-0.4c0.1-0.1,0.1-0.3,0-0.4
				C104.3,64.6,104.2,64.6,104,64.8L104,64.8z"/>
		</g>
	</g>
	<g>
		<g>
			<path d="M110.6,64.7c0.6,0.2,1.2,0.1,1.7,0.1c0.2,0,0.3-0.1,0.3-0.3c0-0.2-0.1-0.3-0.3-0.3c-0.3,0-0.5,0-0.8,0
				c-0.3,0-0.5,0-0.8-0.1c-0.1-0.1-0.3,0.1-0.4,0.2C110.4,64.5,110.4,64.6,110.6,64.7L110.6,64.7z"/>
		</g>
	</g>
	<g>
		<g>
			<path d="M110,62.5c0.1,0.2,0.3,0.3,0.5,0.3c0.2,0,0.4,0,0.6,0c0.1,0,0.2,0,0.2-0.1c0,0,0.1,0,0.1,0c0,0,0.1,0,0,0c0,0,0,0,0.1,0
				c0,0,0.1,0,0.1,0c0,0,0.1,0,0.1,0c0,0-0.1,0,0,0c0,0,0,0,0,0c0,0-0.1,0,0,0c0,0,0,0,0,0c0,0,0,0,0,0c0,0,0,0,0,0
				c0.1,0.1,0.3,0.1,0.4,0c0.1-0.1,0.1-0.3,0-0.4c-0.3-0.3-0.7-0.2-1-0.1c-0.1,0-0.2,0-0.2,0c0,0,0,0-0.1,0c0.1,0,0,0,0,0
				c0,0-0.1,0-0.1,0c0,0,0,0,0,0c-0.1,0,0,0,0,0c0,0-0.1,0-0.1,0c0,0,0.1,0,0,0c-0.1,0,0,0,0,0c0,0,0,0,0,0c-0.1-0.1,0,0,0,0
				c-0.1-0.1-0.3-0.2-0.4-0.1C110,62.1,109.9,62.3,110,62.5L110,62.5z"/>
		</g>
	</g>
</g>
</svg>
