<?xml version="1.0" encoding="utf-8"?>
<!-- Generator: Adobe Illustrator 22.0.1, SVG Export Plug-In . SVG Version: 6.00 Build 0)  -->
<svg
  version="1.1"
  id="Layer_1"
  xmlns="http://www.w3.org/2000/svg"
  xmlns:xlink="http://www.w3.org/1999/xlink"
  x="0px"
  y="0px"
  viewBox="0 0 1000 1000"
  style="enable-background: new 0 0 1000 1000"
  xml:space="preserve"
>
  <style type="text/css">
    .st0 {
      fill: none;
      stroke: currentColor;
      stroke-width: 50;
    }
    .st1 {
      stroke: currentColor;
      stroke-width: 10;
    }
  </style>
  <g id="Group_1" transform="translate(-21.397 287.751)">
    <g id="Path_4" transform="translate(71.302 456.959) rotate(-43)">
      <path
        class="st0"
        d="M488.7-425.9c141.1,2.6,254.9,116.2,257.6,257.3l8,600c2.4,135.9-105.7,248-241.6,250.5
			c-3.1,0.1-6.2,0.1-9.3,0c-141.1-2.5-254.9-116.2-257.7-257.3l-7.9-600c-2.4-135.9,105.7-248,241.6-250.5
			C482.5-426,485.6-426,488.7-425.9z"
      />
      <path
        fill="currentColor"
        d="M506.9,636.2c55,0,106.2-21.2,144.2-59.7c37.9-38.4,58.4-89.7,57.6-144.5l-8-600c-1.5-115.5-96.9-210.6-212.6-212.2
			c-1,0-1.9,0-2.8,0c-55,0-106.2,21.2-144.2,59.7c-37.9,38.4-58.4,89.7-57.6,144.5l8,600c1.5,115.5,96.9,210.6,212.6,212.2
			C505,636.2,506,636.2,506.9,636.2 M506.9,681.9c-1.2,0-2.3,0-3.5,0C363,680,247.6,564.8,245.8,424.6l-8-600
			c-1.8-139,108.7-250.5,247.5-250.5c1.2,0,2.3,0,3.4,0c140.5,1.9,255.8,117,257.7,257.2l8,600C756.3,570.4,645.7,681.9,506.9,681.9
			z"
      />
    </g>
    <g id="Path_2" transform="translate(71.302 456.959) rotate(-43)">
      <path
        class="st0"
        d="M488.7-425.9c141.1,2.6,254.9,116.2,257.6,257.3l4,300l-508.5-6.8l-4-300c-2.4-135.9,105.7-248,241.6-250.5
			C482.5-426,485.6-426,488.7-425.9z"
      />
      <path
        fill="currentColor"
        d="M704.1,85l-3.4-253.1c-1.5-115.5-96.9-210.6-212.6-212.2c-1,0-1.9,0-2.8,0c-55,0-106.2,21.2-144.2,59.7
			c-37.9,38.4-58.4,89.7-57.6,144.5l3.4,255.5L704.1,85 M750.4,131.3l-508.7-6.8l-4-300c-1.8-139,108.7-250.5,247.5-250.5
			c1.2,0,2.3,0,3.5,0c140.5,1.9,255.8,117,257.7,257.2L750.4,131.3z"
      />
    </g>
    <g id="Rectangle_1" transform="translate(81.976 455.017) rotate(47)">
      <path
        fill="currentColor"
        d="M-144.3-642.7l137,0c12.6,0,22.8,10.2,22.8,22.8l0,0c0,12.6-10.2,22.8-22.8,22.8l-137,0c-12.6,0-22.8-10.2-22.8-22.8l0,0
			C-167.2-632.5-157-642.7-144.3-642.7z"
      />
      <polygon class="st1" points="-144.3,-619.8 -7.3,-619.8 -7.3,-619.8 		" />
    </g>
  </g>
</svg>
