<svg xmlns="http://www.w3.org/2000/svg" viewBox="0 0 596.3 585.52"><title>Asset 4</title><g id="Layer_2" data-name="Layer 2"><g id="Layer_1-2" data-name="Layer 1"><path d="M535.17,463.16c1.59-4,2.21-6.71,3.61-9.08a225.47,225.47,0,0,0,24.7-62.23,263.44,263.44,0,0,0,6.79-64.09c-.34-17.76-.58-34.12-.52-52.12,0-1.23,0-2.48,0-3.72l-.19-3.72c-.14-2.48-.29-5-.47-7.47-.06-1.25-.22-2.49-.39-3.73l-.48-3.73c-.33-2.48-.65-5-1-7.46l-1.43-7.41-.72-3.71c-.13-.61-.24-1.23-.37-1.85l-.46-1.83-1.8-7.33-.89-3.67-1.06-3.61a282.32,282.32,0,0,0-23.77-58.79,268.83,268.83,0,0,0-37-51.62c-1.1-1.2-2.14-2.45-3.28-3.6L493,98.94l-3.44-3.45c-1.16-1.13-2.26-2.32-3.5-3.39l-7.23-6.52L477,84c-.6-.54-1.25-1-1.88-1.55l-3.78-3.07-3.78-3.07-1.89-1.53-2-1.43-7.87-5.74c-1.29-1-2.65-1.86-4-2.75l-4.08-2.66c-2.72-1.75-5.38-3.62-8.23-5.18l-8.4-4.9-1.05-.62L429,50.9l-2.16-1.12-4.32-2.23-4.31-2.24c-1.45-.73-2.94-1.36-4.41-2l-8.83-4-9-3.59c-1.51-.58-3-1.24-4.52-1.76l-4.59-1.57-4.59-1.58c-1.53-.53-3.05-1.08-4.61-1.5l-9.31-2.71a337.1,337.1,0,0,0-40.85-8.44,290.68,290.68,0,0,0-41.72-2.43,278.52,278.52,0,0,0-147,45.78c-1.26.83-2.54,1.62-3.79,2.46l-3.68,2.62L124,71.76l-7.11,5.6-3.55,2.79-3.41,3-6.81,6c-2.19,2.07-4.33,4.2-6.49,6.3l-3.24,3.17c-1.07,1.06-2,2.21-3.08,3.31l-6.08,6.71c-1,1-1.82,2.14-2.71,3.22l-2.65,3.28-2.65,3.27c-.88,1.1-1.8,2.16-2.6,3.32l-4.95,6.82-2.47,3.4c-.8,1.15-1.53,2.35-2.31,3.52l-4.57,7.07-1.15,1.76-1,1.82L55,149.7c-1.39,2.43-2.82,4.85-4.18,7.29L47,164.47c-2.67,4.93-4.79,10.12-7.13,15.2-1.22,2.52-2.13,5.17-3.18,7.76s-2.08,5.19-3.06,7.81a314.67,314.67,0,0,0-15.86,66.33l-.88,8.67c-.14,1.45-.32,2.89-.42,4.34l-.24,4.35-.47,8.71-.05,8.72,0,4.36.18,4.36.38,8.72c.22,2.9.53,5.8.79,8.69l.41,4.35c.14,1.45.4,2.88.59,4.32l1.27,8.64c.47,2.87,1.12,5.71,1.67,8.56,1,5.73,2.65,11.33,4.08,17,.3,1.23.68,2.45,1.07,3.66l1.13,3.65,2.26,7.31,2.58,7.2c.88,2.39,1.63,4.83,2.66,7.17l2.91,7.07,1.46,3.53,1.63,3.46L44,415.29l.82,1.72.91,1.69,1.81,3.36A206.59,206.59,0,0,0,83.35,471c10.46,10.29,20.87,21.31,32.25,31l7.83,6.43c1.28,1.11,2.68,2.06,4,3.08l4.06,3,4.06,3c1.37,1,2.8,1.9,4.19,2.85,2.81,1.88,5.59,3.81,8.43,5.64A266.34,266.34,0,0,0,184,544.88,260.69,260.69,0,0,0,296.44,565c5.13-.08,10.23-.63,15.32-1,2.55-.13,5.08-.46,7.61-.74l7.6-.81c2.52-.33,5-.75,7.55-1.1l3.78-.53c1.26-.17,2.52-.35,3.77-.6l7.5-1.38,3.75-.66,3.72-.84a337.58,337.58,0,0,0,58.5-18.08,231.45,231.45,0,0,0,45.19-25.42,288.2,288.2,0,0,0,39.49-34.33c7.36-7.46,14.62-15,23-24.85a80.31,80.31,0,0,1-3.88,10c-.77,1.6-1.51,3.25-2.42,4.76s-1.83,3-2.78,4.49-1.93,2.94-2.92,4.38l-1.49,2.15c-.5.7-1.05,1.37-1.58,2.05l-6.32,8a268.66,268.66,0,0,1-39.54,39.53,250.52,250.52,0,0,1-47.84,30.48,237.7,237.7,0,0,1-45.66,16.36c-4,.9-7.89,1.89-11.87,2.69l-12,2.16c-4,.6-8,1.08-12.05,1.63-1,.13-2,.29-3,.39l-3,.26-6,.54A297.68,297.68,0,0,1,261,583.25a289.87,289.87,0,0,1-114-39,296,296,0,0,1-88.6-81.18l-3.1-4.21-2.93-4.33-3-4.32c-1-1.45-2-2.85-2.92-4.35L40.92,437c-.46-.74-1-1.47-1.4-2.22l-1.3-2.27L35.6,428,33,423.44c-.86-1.53-1.62-3.11-2.43-4.66-1.59-3.13-3.25-6.22-4.77-9.39l-4.3-9.62-1.07-2.42-.94-2.46L17.59,390c-2.29-5.73-4-11.68-5.8-17.59-.48-1.47-.83-3-1.21-4.47l-1.13-4.5c-.72-3-1.57-6-2.11-9l-1.8-9.1c-.15-.76-.32-1.51-.44-2.27l-.35-2.3-.7-4.58-.71-4.58L3,329.24l-.25-2.31-1.06-9.21a297.56,297.56,0,0,1,.05-63.64,282.8,282.8,0,0,1,13.92-62.45c6.45-18.5,15.8-36,26.61-52.25C64.58,105.79,92.61,76.16,125.47,53A288.16,288.16,0,0,1,235.3,5.55l5.82-1.11L244,3.88,247,3.45c3.91-.54,7.82-1.13,11.74-1.63L270.49.74c2-.23,3.94-.23,5.91-.34l5.91-.26a292,292,0,0,1,93.39,12l5.66,1.71,2.83.85,2.78,1,11.12,3.95L409,24.13c.91.38,1.83.71,2.72,1.13l2.68,1.25L419.77,29a336.64,336.64,0,0,1,52.45,30.72,289.1,289.1,0,0,1,45.72,40.52,299.17,299.17,0,0,1,27.22,35.3,352.41,352.41,0,0,1,21.81,39c17.51,37.14,28,78,29.18,119.77a263.93,263.93,0,0,1-7.82,73,234.61,234.61,0,0,1-28.54,67.52c-.71,1.14-1.4,2.3-2.08,3.48s-1.32,2.37-2.05,3.52l-4.23,7a47.75,47.75,0,0,1-3.38,4.93,37.84,37.84,0,0,1-3.86,3.93A29.69,29.69,0,0,1,535.17,463.16Z"/><path d="M45.87,255.21a24.24,24.24,0,0,0,.33-5.56,26.85,26.85,0,0,0,.08-5.07,24,24,0,0,0-.59-2.58,13.73,13.73,0,0,1-.43-2.59c0-.92,0-1.84,0-2.76a20.81,20.81,0,0,1,.23-2.74c.25-1.81.51-3.63.76-5.43s.65-3.46,1-5.19l.58-2.57c.21-.86.48-1.69.72-2.53l1.52-5,1.77-4.92c.3-.82.6-1.64.94-2.44s.71-1.6,1.07-2.41c.74-1.6,1.43-3.23,2.13-4.85a36.66,36.66,0,0,0,3-10.08c.08-.71-2-1.65-2.44-1.12a28.52,28.52,0,0,0-5.38,9.27c-.65,1.69-1.15,3.44-1.69,5.16-.26.87-.53,1.73-.79,2.58L48,206.93l-1.51,5.13-1.31,5.22c-.21.88-.46,1.74-.65,2.62l-.57,2.64c-.37,1.77-.84,3.51-1.2,5.29s-.64,3.71-1,5.57c-.19.93-.31,1.87-.45,2.81s-.31,1.87-.53,2.8a16.18,16.18,0,0,1-.91,2.61,13.48,13.48,0,0,0-.79,2.68,29.94,29.94,0,0,0-.16,5.44,26.32,26.32,0,0,0,.89,5.91c.56,1.94,2.12,3.56,2.65,5.49.91,3.74,1.9,7.43,2.85,11.15,0,.19.59,0,.55-.15-.69-3.75-1.63-7.45-1.46-11.26C44.43,258.9,45.4,257.1,45.87,255.21Z"/><path d="M86.12,165.21A183,183,0,0,0,65.45,199.7c-1.51,3-2.69,6.18-3.94,9.31-.55,1.59-1.07,3.18-1.59,4.78-.26.8-.53,1.59-.76,2.4l-.63,2.43a91.88,91.88,0,0,0-3,19.67c0,1.85-.19,3.69-.17,5.53l.11,5.5c.12,1.82.32,3.63.48,5.43l.13,1.36.24,1.33.49,2.66c.18.92,3.13.44,3.06-.44a76.54,76.54,0,0,1,.7-18.31c.25-1.52.46-3,.72-4.57l1-4.56c.26-1.52.72-3,1.08-4.55s.69-3,1.16-4.56l1.28-4.6c.43-1.53,1-3.06,1.42-4.59l.71-2.31.79-2.29,1.58-4.6c2.28-6.11,4.68-12.24,7.42-18.3l9.52-20.58C87.33,165.49,86.36,164.9,86.12,165.21Z"/><path d="M67.14,260.36a25.49,25.49,0,0,0,.33-5.56,27.82,27.82,0,0,0,.08-5.08c-.1-.85-.41-1.72-.6-2.58a13.71,13.71,0,0,1-.42-2.59c0-.92,0-1.83,0-2.75a21.09,21.09,0,0,1,.22-2.75q.39-2.72.77-5.43c.23-1.75.65-3.46,1-5.18l.58-2.58c.21-.85.48-1.69.72-2.53l1.53-5,1.77-4.92c.3-.81.59-1.64.94-2.44s.71-1.6,1.07-2.41c.74-1.6,1.43-3.23,2.13-4.84a36.85,36.85,0,0,0,3-10.08c.09-.71-2-1.66-2.44-1.12a28.63,28.63,0,0,0-5.37,9.26c-.65,1.69-1.16,3.45-1.69,5.17-.27.86-.53,1.72-.79,2.57l-.74,2.58-1.52,5.13-1.3,5.23c-.21.87-.46,1.73-.65,2.61l-.57,2.65c-.37,1.77-.84,3.5-1.2,5.28s-.64,3.71-1,5.57c-.19.93-.31,1.87-.45,2.81s-.32,1.88-.53,2.81a16.52,16.52,0,0,1-.91,2.61,12.59,12.59,0,0,0-.79,2.67,29.09,29.09,0,0,0-.16,5.44,26.32,26.32,0,0,0,.89,5.91c.55,1.94,2.12,3.56,2.65,5.49.91,3.74,1.9,7.44,2.85,11.15,0,.19.59.05.55-.15-.69-3.75-1.63-7.44-1.46-11.26C65.69,264.05,66.66,262.24,67.14,260.36Z"/><path d="M107.39,170.35a182.52,182.52,0,0,0-20.67,34.49c-1.52,3-2.69,6.18-3.94,9.31-.56,1.59-1.08,3.19-1.6,4.78-.25.8-.52,1.6-.75,2.4l-.63,2.43a92.07,92.07,0,0,0-3,19.67c0,1.85-.19,3.7-.17,5.53l.11,5.5c.11,1.82.32,3.63.48,5.44l.12,1.35.24,1.34.5,2.66c.17.91,3.13.44,3.06-.44a76.54,76.54,0,0,1,.7-18.31c.25-1.53.45-3.05.72-4.57l1-4.57c.26-1.52.72-3,1.08-4.55s.68-3,1.16-4.55l1.28-4.6c.43-1.54,1-3.06,1.42-4.6l.7-2.31.8-2.29,1.58-4.6c2.27-6.11,4.67-12.24,7.41-18.29L108.44,171C108.59,170.63,107.63,170,107.39,170.35Z"/><path d="M457.87,475.75a22.48,22.48,0,0,0-3.75,3.6,33.19,33.19,0,0,0-3.27,3.44,14.6,14.6,0,0,0-1.23,2.16,11.89,11.89,0,0,1-1.38,2,34.11,34.11,0,0,1-3.71,3.6l-4.06,3.16a23.21,23.21,0,0,1-2,1.45l-2.07,1.37-2.08,1.34c-.71.43-1.44.8-2.16,1.2-1.44.78-2.88,1.57-4.34,2.31l-4.44,2.07c-5.93,2.65-12.57,4.12-17.82,8.12-.53.41.17,2.38.85,2.36,6.73-.2,12.77-4,18.65-7l4.42-2.38,4.34-2.6c.72-.43,1.46-.84,2.17-1.3l2.14-1.4,2.15-1.37c.72-.46,1.44-.9,2.14-1.41,1.45-1,2.87-2.09,4.31-3.13s2.8-2.24,4.31-3.22a18,18,0,0,1,2.31-1.21,16.85,16.85,0,0,0,2.24-1.35,23,23,0,0,0,3.58-3.67,25.12,25.12,0,0,0,3.15-4.62,7.85,7.85,0,0,0,.49-1.33c.11-.47.2-.95.3-1.42a10.5,10.5,0,0,1,.82-2.69c.41-.8.85-1.59,1.29-2.35s.82-1.58,1.24-2.36c.85-1.55,1.68-3.11,2.53-4.66.08-.17-.38-.41-.47-.26-.94,1.5-1.86,3-2.82,4.46a21.17,21.17,0,0,1-1.51,2.14c-.56.68-1.14,1.34-1.75,2a9.43,9.43,0,0,1-2.2,1.61l-1.19.67C458.65,475.28,458.24,475.49,457.87,475.75Z"/><path d="M372.27,509.32A216,216,0,0,0,408.83,500c3-1,5.88-2.2,8.75-3.44,1.44-.63,2.81-1.36,4.21-2.05l2.08-1.06,2-1.18a74.31,74.31,0,0,0,14.71-11.07l1.83-1.79.92-.88.85-1c1.13-1.27,2.3-2.51,3.4-3.79l3.09-4a24.93,24.93,0,0,0,1.42-2.1l1.34-2.14c.47-.73-1.86-2.27-2.38-1.62-.89,1.11-1.76,2.23-2.66,3.33l-2.95,3.06a37,37,0,0,1-3.1,2.9c-1.07.92-2.06,1.91-3.23,2.73l-3.36,2.59-3.53,2.38c-1.14.84-2.4,1.55-3.62,2.3s-2.4,1.55-3.7,2.22l-3.81,2.16-4,2c-.66.34-1.3.7-2,1l-2,1c-1.37.63-2.69,1.33-4.09,1.93-5.52,2.51-11.24,4.83-17.07,7.06-6.61,2.48-13.33,4.87-20,7.64C371.62,508.37,371.9,509.38,372.27,509.32Z"/><path d="M445.85,457.47a22.94,22.94,0,0,0-3.76,3.6,34.28,34.28,0,0,0-3.27,3.44,15.51,15.51,0,0,0-1.22,2.16,12.5,12.5,0,0,1-1.38,2,36,36,0,0,1-3.71,3.6l-4.07,3.16a21.77,21.77,0,0,1-2,1.45l-2.06,1.37-2.09,1.34c-.7.43-1.43.8-2.15,1.2-1.44.78-2.89,1.57-4.35,2.31l-4.43,2.07c-5.93,2.65-12.57,4.12-17.83,8.12-.52.41.18,2.38.85,2.36,6.74-.2,12.78-4,18.65-7l4.42-2.38,4.35-2.6c.72-.43,1.46-.84,2.17-1.3l2.13-1.4,2.15-1.38c.72-.45,1.45-.89,2.14-1.4,1.45-1,2.87-2.09,4.32-3.13s2.79-2.24,4.3-3.22a19.42,19.42,0,0,1,2.31-1.21,16.35,16.35,0,0,0,2.25-1.35,23.9,23.9,0,0,0,3.58-3.67,25.07,25.07,0,0,0,3.14-4.62,8.86,8.86,0,0,0,.5-1.33c.11-.47.2-.95.3-1.42a10.5,10.5,0,0,1,.82-2.69c.41-.8.84-1.59,1.29-2.35s.81-1.58,1.24-2.36l2.52-4.66c.09-.17-.37-.41-.47-.26-.94,1.5-1.85,3-2.81,4.46a22.89,22.89,0,0,1-1.51,2.14c-.57.68-1.15,1.34-1.75,2a9.29,9.29,0,0,1-2.21,1.61l-1.18.67A12.47,12.47,0,0,0,445.85,457.47Z"/><path d="M360.24,491a215.77,215.77,0,0,0,36.56-9.33c3-1,5.88-2.2,8.76-3.44,1.43-.63,2.81-1.36,4.21-2l2.08-1.06,2-1.18a74.09,74.09,0,0,0,14.72-11.07l1.83-1.79.92-.88.85-1c1.13-1.27,2.29-2.51,3.4-3.79l3.09-4a22.64,22.64,0,0,0,1.41-2.1l1.35-2.14c.46-.73-1.86-2.27-2.38-1.62-.89,1.11-1.76,2.23-2.67,3.33L433.43,452a37,37,0,0,1-3.1,2.9c-1.07.92-2.06,1.91-3.23,2.73l-3.36,2.59-3.54,2.38c-1.14.84-2.39,1.55-3.62,2.3s-2.39,1.55-3.69,2.22l-3.82,2.16-3.94,2c-.66.34-1.3.7-2,1l-2,1c-1.37.63-2.69,1.33-4.09,1.93-5.52,2.51-11.24,4.83-17.08,7.06-6.6,2.48-13.33,4.87-20,7.64C359.6,490.09,359.88,491.1,360.24,491Z"/><path d="M185.83,312.23a27.26,27.26,0,0,1,8.6,7.5,50.13,50.13,0,0,1,5.95,10.15,89.67,89.67,0,0,1,5.39,16.5,48.47,48.47,0,0,1,.86,16.07,60.39,60.39,0,0,1-3.92,15.65,94.06,94.06,0,0,1-6.3,13.36A71.87,71.87,0,0,1,174,415.16a71.1,71.1,0,0,1-30.77,11.31,72.27,72.27,0,0,1-23-.87,69.28,69.28,0,0,1-21.54-8.23,71.66,71.66,0,0,1-26.8-28,70.53,70.53,0,0,1,6.16-75.92,71.62,71.62,0,0,1,32.52-23.79A73.48,73.48,0,0,1,147.78,286a69.57,69.57,0,0,1,24.52,9.15,68.06,68.06,0,0,1,14,11.5A23.6,23.6,0,0,1,188,309.3c-1.93-1.62-3.12-2.45-4.24-3.43a67,67,0,0,0-25.6-14.61,63.57,63.57,0,0,0-16.63-2.65A75.17,75.17,0,0,0,124.93,290a66.28,66.28,0,0,0-27.39,12.08,67.7,67.7,0,0,0-26.89,49.36,64.43,64.43,0,0,0,4.12,27.7l.81,1.85a69,69,0,0,0,4.78,9.19,57.92,57.92,0,0,0,18,18.2c.75.49,1.57.88,2.3,1.38a64.88,64.88,0,0,0,22.09,9.46A58,58,0,0,0,136,420.69a66.07,66.07,0,0,0,40.58-15,70,70,0,0,0,20.84-28,61.46,61.46,0,0,0,3.95-31.17,64.21,64.21,0,0,0-4-15.35,65.94,65.94,0,0,0-7.66-13.86C188.62,315.8,187.58,314.3,185.83,312.23Z"/><path d="M180.69,315.62a63.45,63.45,0,0,1,9.55,13,82.18,82.18,0,0,1,4.16,8.48,41.44,41.44,0,0,1,3.47,20,82.39,82.39,0,0,1-1.69,11.56,61.22,61.22,0,0,1-18.24,30.79,72.25,72.25,0,0,1-17.2,11.79,59.89,59.89,0,0,1-20.16,5.78,23.06,23.06,0,0,1-6.28-.14,197.32,197.32,0,0,1-22.45-5.58,16.41,16.41,0,0,1-5.09-2.42c-4.93-3.87-10-7.29-14.67-11.28a44.17,44.17,0,0,1-12-17.31c-2.64-6.51-4.85-13.41-5.28-20.54a60.71,60.71,0,0,1,6.31-30.22,61.38,61.38,0,0,1,19.83-23.34,59.58,59.58,0,0,1,21.1-9.39,60.36,60.36,0,0,1,23.12-.73c4.66.77,9.46,1.67,13.75,3.7A45.62,45.62,0,0,1,175,312.92a57.07,57.07,0,0,0-19.61-11.26,48.19,48.19,0,0,0-9.75-2.2,61.34,61.34,0,0,0-13.34,0c-2.21.2-4.38.6-6.53,1s-4.28,1-6.35,1.71a64.24,64.24,0,0,0-22.69,13,42.22,42.22,0,0,0-8.48,10.76,91.94,91.94,0,0,0-7.4,16.74,62,62,0,0,0-3.07,18.23A42.52,42.52,0,0,0,85.1,386c5.53,7.9,12.43,15.23,21,19.93a56.35,56.35,0,0,0,16.69,6,64.57,64.57,0,0,0,17.6.77,57.4,57.4,0,0,0,18.73-4.95,58.49,58.49,0,0,0,33.66-44.92A61.94,61.94,0,0,0,191.71,339a58.67,58.67,0,0,0-10.33-21.7A10.44,10.44,0,0,1,180.69,315.62Z"/><path d="M192.46,203a28.19,28.19,0,0,0-7.78-7.12A25.12,25.12,0,0,0,174,192.3a26.7,26.7,0,0,0-11.2,1.38,29.56,29.56,0,0,0-9.8,5.69,30.22,30.22,0,0,0-10.52,21,30.05,30.05,0,0,0,1.57,11.76A29.39,29.39,0,0,0,159.17,249a28.9,28.9,0,0,0,31.23-4.13,28.34,28.34,0,0,0,9.87-19.21,26.66,26.66,0,0,0-6.69-20c-.6-.7-1.07-.28-.54.45a26.71,26.71,0,0,1,5.33,18.83,25.11,25.11,0,0,1-9,16.9,24.5,24.5,0,0,1-34.64-3.54,23.58,23.58,0,0,1-5.17-16.83,22.88,22.88,0,0,1,15-19.7,28.12,28.12,0,0,1,8.22-1.64,31.55,31.55,0,0,1,9.16.8,24.89,24.89,0,0,1,8.66,3.94C192.57,206.37,194.11,205.27,192.46,203Z"/><path d="M448.83,141.16a45.62,45.62,0,0,0,3.74-16.62,40.41,40.41,0,0,0-3.52-17.8,43,43,0,0,0-10.9-14.61c-1.21-1-2.4-2-3.64-2.88l-3.89-2.51-4.09-2.09c-1.38-.63-2.82-1.13-4.22-1.69A48.83,48.83,0,0,0,384.41,85a48.36,48.36,0,0,0-15.23,11.63,47.56,47.56,0,0,0-9.4,16.52,46.83,46.83,0,0,0,13.44,49.75,46.12,46.12,0,0,0,15.17,8.91,46.69,46.69,0,0,0,17.66,2.68,45.08,45.08,0,0,0,17.19-4.23,44.21,44.21,0,0,0,14.09-10.45,42.29,42.29,0,0,0,8.66-15c.5-1.41-.47-1.73-1.08-.4a43.6,43.6,0,0,1-9,13.44A42.42,42.42,0,0,1,422.78,167a40.49,40.49,0,0,1-30.92.9,39.65,39.65,0,0,1-25.54-36.49,39.5,39.5,0,0,1,2.73-14.93A38.07,38.07,0,0,1,388.5,95.76,36.94,36.94,0,0,1,428.18,101a45.44,45.44,0,0,1,8.89,10.21,51.22,51.22,0,0,1,6.22,13.49A39.8,39.8,0,0,1,444.7,140C444.19,144,447,145.28,448.83,141.16Z"/><path d="M146.12,52.67c.73,1,1.55,2,2.31,2.93a50.87,50.87,0,0,0,8.15,8.06c2.38,1.91,4.75,3.7,7.17,5.54a42.25,42.25,0,0,0,3.55,2.3c1.27.61,2.52,1.29,3.82,1.84a39.17,39.17,0,0,0,5,1.75c.85.23,1.69.51,2.56.69l2.62.45a24.08,24.08,0,0,0,3.06.35,21.32,21.32,0,0,0,3.09.15c1,0,2.07,0,3.11-.08s2.05-.28,3.08-.44a13.22,13.22,0,0,0,2.21-.55L198,75c1.4-.58,2.77-1.24,4.14-1.85.72-.4,1.48-.73,2.19-1.13a28.65,28.65,0,0,0,3.4-2.26,40.23,40.23,0,0,0,3.16-2.53,35.28,35.28,0,0,0,2.65-2.39l1.31-1.21L216,62.23l1.27-1.43c.45-.47.77-1,1.17-1.53a27.66,27.66,0,0,0,2.13-3.19,38.72,38.72,0,0,0,4.16-11.36l.38-1.79.27-1.81c.22-1.2.25-2.43.35-3.64a42,42,0,0,0-.5-7.69c-.06-.41-.1-.83-.13-1.25s-.13-.83-.21-1.24-.3-.92-.41-1.39c-.41-1.44-.81-2.88-1.3-4.29a9.67,9.67,0,0,1-.26-1.78c-.13-1.16-.2-2.37-.43-3.54l-.3-1.79-.42-1.77a6.57,6.57,0,0,1-.07-1.17c.75-.33,1,.31,1.2.61,1.65,2.08,3.42,4,5.19,6.11a7.52,7.52,0,0,1,1.37,2.91,65,65,0,0,1,1.36,9.06c.09,1.39.1,2.79.1,4.18s-.08,2.79-.28,4.17a44.35,44.35,0,0,1-2.45,10.7c-.27.9-.55,1.81-.9,2.68a42.07,42.07,0,0,1-2.08,4.27l-1.24,2-.62,1-.7,1a44.49,44.49,0,0,1-2.85,3.85,31.06,31.06,0,0,1-3.23,3.55c-.58.54-1.19,1-1.8,1.54s-1.28.9-1.88,1.4L211.2,72c-.57.47-1.2.86-1.8,1.29l-1.82,1.27c-.63.41-1.29.74-2,1.09a38.8,38.8,0,0,1-6.06,2.54c-1.48.44-3,.81-4.48,1.2s-3,.55-4.57.79a44.48,44.48,0,0,1-10.32.42A42.23,42.23,0,0,1,173,79.23l-3.47-1.17a13.15,13.15,0,0,1-1.7-.69l-1.68-.74c-.56-.26-1.15-.49-1.7-.78l-1.64-.92c-1.08-.63-2.2-1.18-3.22-1.91a40.93,40.93,0,0,1-5.87-4.69,9.69,9.69,0,0,1-1.64-2.46c-1.28-2.42-2.65-4.68-3.94-7a30.88,30.88,0,0,1-2.33-6Z"/><path d="M186.88,550.74c.24-.72.41-1.46.62-2.18a31.19,31.19,0,0,0,1.06-6.9c.09-1.85.12-3.66.17-5.51,0-.85,0-1.72-.14-2.57s-.26-1.7-.46-2.54a25.3,25.3,0,0,0-.91-3.08c-.2-.5-.36-1-.58-1.51l-.71-1.45a22.52,22.52,0,0,0-4.42-6.07,18.85,18.85,0,0,0-2.18-1.71c-.79-.48-1.6-.92-2.4-1.37-.45-.22-.88-.47-1.33-.68a17.64,17.64,0,0,0-2.33-.87,22,22,0,0,0-2.38-.65,19,19,0,0,0-2.12-.46L167.7,513l-1.08-.1a18.26,18.26,0,0,0-2.34-.14,16.45,16.45,0,0,0-2.33.09,23.6,23.6,0,0,0-7.09,2l-1,.45-1,.52a20.44,20.44,0,0,0-1.92,1.12,25.32,25.32,0,0,0-3.61,3,13.64,13.64,0,0,0-1.1,1.05c-.2.22-.35.48-.54.7-.57.72-1.14,1.43-1.66,2.18a5.62,5.62,0,0,1-.78.76c-.52.48-1.09.94-1.59,1.47l-.77.79-.72.84a3.94,3.94,0,0,1-.56.45c-.43-.25-.19-.59-.13-.8.44-1.56.76-3.12,1.16-4.75a4.46,4.46,0,0,1,1-1.71,38.45,38.45,0,0,1,4-3.9,29.71,29.71,0,0,1,4.18-2.9,27.31,27.31,0,0,1,6.15-2.62c.54-.19,1.09-.37,1.64-.51a25.37,25.37,0,0,1,2.85-.5c1-.05,1.92-.2,2.88-.17s1.94-.08,2.91,0a20.25,20.25,0,0,1,2.91.33c.47.09.93.21,1.4.33s.9.32,1.36.43l1.31.34c.43.12.85.28,1.28.42l1.28.45c.42.16.82.37,1.23.57a23.37,23.37,0,0,1,3.41,2.08c.75.57,1.47,1.18,2.19,1.78s1.35,1.31,2,2a26.69,26.69,0,0,1,3.9,4.94,25.62,25.62,0,0,1,1.91,4l.66,2.13c.23.71.33,1.45.5,2.18.07.37.17.74.23,1.12l.13,1.13c.07.76.2,1.51.21,2.27a24.92,24.92,0,0,1-.22,4.57,5.73,5.73,0,0,1-.62,1.69c-.74,1.49-1.36,3-2.06,4.45a18.72,18.72,0,0,1-2.11,3.28Z"/><path d="M161.11,168.92c-.37-.83-.78-1.59-1.17-2.32a14.71,14.71,0,0,0-4.69-5.28c-1.44-1-2.78-1.84-4.1-2.94a9.4,9.4,0,0,0-4.42-1.75,12.35,12.35,0,0,0-6.16.43,11.75,11.75,0,0,0-6.12,4.32,10.28,10.28,0,0,0-1.43,5.37,8,8,0,0,0-.08,1.47,14,14,0,0,0,1.31,4.61,15.45,15.45,0,0,0,2,3.53,10.86,10.86,0,0,0,3.24,2.91,11.84,11.84,0,0,0,6.6,1.28,12.17,12.17,0,0,0,3.89-.82,11.08,11.08,0,0,0,3.39-2.37,4.29,4.29,0,0,1,.51-.43,4.25,4.25,0,0,0,.48-.47,3.61,3.61,0,0,0,.35-.71,9.47,9.47,0,0,0,.59-1c.18-.34.37-.68.53-1a2.45,2.45,0,0,1,.79-.68,11.93,11.93,0,0,0,3.44-3.43,5.9,5.9,0,0,1,.73-.65c1.09.07.91.53,1,.79.33,1.82,1.16,3.83,1.47,6.14a3.28,3.28,0,0,1-.63,2.49,22.28,22.28,0,0,1-5.05,5.11,18.22,18.22,0,0,1-14.12,3,7.34,7.34,0,0,0-1.05-.12,7.51,7.51,0,0,1-1-.21,18.87,18.87,0,0,1-6.2-3.37,18.48,18.48,0,0,1-4.81-5.3,11.87,11.87,0,0,1-.67-1.65,15.63,15.63,0,0,0-.53-1.68,18,18,0,0,1-1.35-6.56,14.59,14.59,0,0,1,1-4.92,20.44,20.44,0,0,1,3.62-6.09A15.64,15.64,0,0,1,144.15,150a21.67,21.67,0,0,1,5.74.35,18.85,18.85,0,0,1,10.2,5.7,4.43,4.43,0,0,1,.86,2.22c.4,2.21.87,4.11,1.14,6.05a12.09,12.09,0,0,1-.49,4.58Z"/><path d="M309.92,116.88c-.31-.71-.67-1.37-1-2a12.58,12.58,0,0,0-4.05-4.56c-1.24-.88-2.4-1.59-3.53-2.53a8.25,8.25,0,0,0-3.81-1.52,10.71,10.71,0,0,0-5.31.38,10.15,10.15,0,0,0-5.28,3.73,8.73,8.73,0,0,0-1.23,4.62,7.67,7.67,0,0,0-.08,1.27,12.32,12.32,0,0,0,1.13,4,13.79,13.79,0,0,0,1.75,3,9.27,9.27,0,0,0,2.79,2.5,10.16,10.16,0,0,0,5.69,1.11,10.34,10.34,0,0,0,3.36-.71,9.49,9.49,0,0,0,2.92-2,8.93,8.93,0,0,0,.85-.78,2.66,2.66,0,0,0,.3-.61,7.73,7.73,0,0,0,.51-.88c.16-.3.32-.6.46-.9a2.23,2.23,0,0,1,.68-.59,10.4,10.4,0,0,0,3-3,3.94,3.94,0,0,1,.63-.57c.93.06.78.46.82.68.29,1.57,1,3.3,1.27,5.3a2.8,2.8,0,0,1-.54,2.14,19,19,0,0,1-4.36,4.41,15.68,15.68,0,0,1-12.17,2.6,6.85,6.85,0,0,0-.91-.1,5.74,5.74,0,0,1-.9-.18,16.28,16.28,0,0,1-5.35-2.91,15.75,15.75,0,0,1-4.14-4.57,10.31,10.31,0,0,1-.58-1.42,10.61,10.61,0,0,0-.46-1.45,15.62,15.62,0,0,1-1.16-5.65,12.45,12.45,0,0,1,.87-4.25,17.81,17.81,0,0,1,3.12-5.25,13.49,13.49,0,0,1,10.12-5.67,18.26,18.26,0,0,1,4.95.3,16.26,16.26,0,0,1,8.79,4.91,3.77,3.77,0,0,1,.74,1.92c.35,1.9.75,3.54,1,5.21a10.41,10.41,0,0,1-.41,3.95Z"/><path d="M250.2,241.4a4.57,4.57,0,0,1-1.77,1.9,3,3,0,0,1-1,.48c-.38.08-.52.37-.93.72a1.44,1.44,0,0,1-1.46.13,3.38,3.38,0,0,1-1.17-.93,2.11,2.11,0,0,1-.4-2.51,7.66,7.66,0,0,1,1.13-1.61,2.42,2.42,0,0,1,1.71-.64,3.49,3.49,0,0,1,1.77.52c.28.17.65.28,1.06.51a2.94,2.94,0,0,1,1.1,1c.21.37,1.29.29,1.36-.19a5.93,5.93,0,0,0-.1-2.21,3.54,3.54,0,0,0-1.25-2,5.53,5.53,0,0,0-4-1.11,5.63,5.63,0,0,0-3.7,2.12,3.76,3.76,0,0,0-.81,3.51,8.54,8.54,0,0,0,1.76,3,4.53,4.53,0,0,0,1.38.88,13.06,13.06,0,0,1,1.57.75,2.16,2.16,0,0,0,1.81.38,4.81,4.81,0,0,0,1.63-1,4.22,4.22,0,0,0,1.3-3.64C251.11,241.22,250.32,241.15,250.2,241.4Z"/><path d="M276.05,287.28a5,5,0,0,1-1.24,1.73,14.93,14.93,0,0,1-1.43,1.1,4.12,4.12,0,0,1-1.51.72c-.56.13-.77.56-1.39,1.08a2.09,2.09,0,0,1-2.18.2,5,5,0,0,1-1.76-1.39,3.16,3.16,0,0,1-.6-3.77,11.66,11.66,0,0,1,1.69-2.41,3.75,3.75,0,0,1,2.57-1,5.37,5.37,0,0,1,2.65.79c.42.25,1,.43,1.59.77a4.3,4.3,0,0,1,1.65,1.56c.32.55,1.94.43,2-.3a9.09,9.09,0,0,0-.14-3.31,5.36,5.36,0,0,0-1.88-2.95,8.24,8.24,0,0,0-11.61,1.51c-1.17,1.48-1.88,3.56-1.21,5.26a12.88,12.88,0,0,0,2.62,4.43,6.54,6.54,0,0,0,2.08,1.32,20.83,20.83,0,0,1,2.35,1.13,3.28,3.28,0,0,0,2.71.57,7.09,7.09,0,0,0,2.46-1.44,6.31,6.31,0,0,0,1.94-5.47C277.41,287,276.22,286.89,276.05,287.28Z"/><path d="M331.26,51.07a4.61,4.61,0,0,1-2.48.78,3.19,3.19,0,0,1-1.12-.08c-.36-.11-.63.07-1.16.17a1.4,1.4,0,0,1-1.33-.61A3.44,3.44,0,0,1,324.6,50a2.1,2.1,0,0,1,.89-2.38,8.51,8.51,0,0,1,1.77-.85,2.49,2.49,0,0,1,1.82.29,3.46,3.46,0,0,1,1.28,1.32c.16.28.42.57.67,1a2.82,2.82,0,0,1,.44,1.45c0,.42,1,.88,1.28.49a6,6,0,0,0,1-2,3.56,3.56,0,0,0-.12-2.32A5.5,5.5,0,0,0,326.4,44,3.73,3.73,0,0,0,324,46.67,8.7,8.7,0,0,0,324,50.1a4.45,4.45,0,0,0,.78,1.45,13.57,13.57,0,0,1,1,1.42,2.12,2.12,0,0,0,1.39,1.22,4.63,4.63,0,0,0,1.89,0A4.25,4.25,0,0,0,332,51.63C332.14,51.35,331.48,50.91,331.26,51.07Z"/><path d="M331.19,103.73a5,5,0,0,1-1.93.89,13.1,13.1,0,0,1-1.79.26,4.44,4.44,0,0,1-1.67-.11c-.55-.17-.95.1-1.74.25a2.12,2.12,0,0,1-2-.9,5.06,5.06,0,0,1-.85-2.07,3.16,3.16,0,0,1,1.34-3.58,11.89,11.89,0,0,1,2.65-1.27,3.7,3.7,0,0,1,2.72.43,5.3,5.3,0,0,1,1.92,2c.24.42.64.85,1,1.46a4.25,4.25,0,0,1,.68,2.17c0,.64,1.47,1.33,1.91.74a9,9,0,0,0,1.51-3,5.22,5.22,0,0,0-.18-3.48,8.25,8.25,0,0,0-10.85-4.4c-1.75.71-3.39,2.17-3.65,4a13,13,0,0,0,.11,5.15,6.63,6.63,0,0,0,1.16,2.17,20.57,20.57,0,0,1,1.5,2.14,3.23,3.23,0,0,0,2.07,1.83,7,7,0,0,0,2.84,0,6.3,6.3,0,0,0,4.39-3.8C332.51,104.15,331.53,103.48,331.19,103.73Z"/><path d="M298.73,463.91a36.3,36.3,0,0,0-.75-14,31.28,31.28,0,0,0-7.12-13.28,33.94,33.94,0,0,0-12.55-8.58,39.78,39.78,0,0,0-15-2.78,40.79,40.79,0,0,0-15.85,3.19,40.18,40.18,0,0,0-21.86,22.35,39.14,39.14,0,0,0-2.68,15.45A38.57,38.57,0,0,0,226.29,481a38.06,38.06,0,0,0,20.84,19.76,37.3,37.3,0,0,0,14,2.53,38,38,0,0,0,14.06-2.82A36.35,36.35,0,0,0,287,492.59a34.72,34.72,0,0,0,7.7-11.64A32.8,32.8,0,0,0,297,467.44c0-1.18-1.21-1.15-1.35,0a33.73,33.73,0,0,1-10.73,22,30.74,30.74,0,0,1-22.21,8.16,29.92,29.92,0,0,1-21-10.15,29.48,29.48,0,0,1-7.22-21,27.93,27.93,0,0,1,8.69-18.82,26.44,26.44,0,0,1,28.22-5.49,38.76,38.76,0,0,1,8.45,4.7,46.41,46.41,0,0,1,8.09,7.29,29.65,29.65,0,0,1,5.81,10.21C294.61,467.22,298.17,467.55,298.73,463.91Z"/><path d="M491,364.74a23.44,23.44,0,0,0,2.61-5.61,21.23,21.23,0,0,0,.9-6A20.21,20.21,0,0,0,491.2,342a22.18,22.18,0,0,0-4.17-4.62,23.63,23.63,0,0,0-5.23-3.17A21.07,21.07,0,0,0,470,332.91a16.66,16.66,0,0,0-5.9,2.36,23.68,23.68,0,0,0-4.69,4.18,22,22,0,0,0-3.28,4.81,13.52,13.52,0,0,0-.62,1.34L455,347a15.77,15.77,0,0,0-.57,2.91,18.56,18.56,0,0,0,1.45,9.41,18,18,0,0,0,5.92,7.38,24.2,24.2,0,0,0,4.79,2.72,23.12,23.12,0,0,0,5.25,1.6c.91.22,1.84.25,2.78.38s1.89.11,2.85,0,1.92-.16,2.91-.24,2-.32,2.93-.63a19.74,19.74,0,0,0,8.55-5.21c.92.69.4,1.57-.14,2.58a21.21,21.21,0,0,1-7.81,8.29,22.31,22.31,0,0,1-11.52,2.46,10.25,10.25,0,0,1-1.8-.3l-.89-.21a8.84,8.84,0,0,0-.88-.25,30.86,30.86,0,0,1-4.13-1.28l-2-.91c-.65-.3-1.25-.71-1.87-1.06A26.16,26.16,0,0,1,448.19,355a24.38,24.38,0,0,1,13.15-24.55,26.7,26.7,0,0,1,6.58-2.83,24.05,24.05,0,0,1,12,.79,23.79,23.79,0,0,1,7,3.51,22.25,22.25,0,0,1,5.46,5.49,10.58,10.58,0,0,1,.82,1.27c.25.44.53.87.76,1.32a23.35,23.35,0,0,1,1.17,2.78,23.45,23.45,0,0,1,0,15.84,24.77,24.77,0,0,1-3.48,6.59Z"/><path d="M518.75,219a4,4,0,0,1-1.56,1.65,2.23,2.23,0,0,1-.88.42c-.33.08-.45.33-.81.64a1.23,1.23,0,0,1-1.27.11,2.88,2.88,0,0,1-1-.81,1.86,1.86,0,0,1-.35-2.2,6.46,6.46,0,0,1,1-1.4,2.14,2.14,0,0,1,1.5-.57,3.09,3.09,0,0,1,1.55.46c.24.14.56.25.92.45a2.45,2.45,0,0,1,1,.91c.19.32,1.13.25,1.19-.17a5.33,5.33,0,0,0-.08-1.94,3.17,3.17,0,0,0-1.09-1.72,4.83,4.83,0,0,0-6.78.88,3.32,3.32,0,0,0-.71,3.07,7.65,7.65,0,0,0,1.54,2.59,4,4,0,0,0,1.21.77,12,12,0,0,1,1.37.65,1.86,1.86,0,0,0,1.58.33,4,4,0,0,0,1.43-.83,3.7,3.7,0,0,0,1.14-3.19C519.54,218.84,518.85,218.79,518.75,219Z"/><path d="M478.78,250.43a7.2,7.2,0,0,1-1.76,2.45,20.35,20.35,0,0,1-2,1.57,6.19,6.19,0,0,1-2.14,1c-.8.18-1.1.79-2,1.53a3,3,0,0,1-3.09.28,7.1,7.1,0,0,1-2.49-2,4.47,4.47,0,0,1-.85-5.34l1.18-1.89a7,7,0,0,1,1.21-1.52,5.26,5.26,0,0,1,3.66-1.37,7.44,7.44,0,0,1,3.75,1.11c.58.35,1.38.6,2.25,1.09a6.15,6.15,0,0,1,2.34,2.21c.45.78,2.74.62,2.88-.42a12.94,12.94,0,0,0-.2-4.7,7.48,7.48,0,0,0-2.65-4.17,11.67,11.67,0,0,0-16.45,2.14,10.09,10.09,0,0,0-1.84,3.6,6.31,6.31,0,0,0,.12,3.85,18.3,18.3,0,0,0,3.72,6.28,9.53,9.53,0,0,0,2.94,1.87,25.66,25.66,0,0,1,3.33,1.59,4.58,4.58,0,0,0,3.84.81,9.86,9.86,0,0,0,3.48-2,7.92,7.92,0,0,0,2.35-3.61,10.32,10.32,0,0,0,.4-4.14C480.7,250,479,249.89,478.78,250.43Z"/><path d="M533.56,362a9.43,9.43,0,0,1-3.73,1.18,29,29,0,0,1-3.31.06,8.12,8.12,0,0,1-3-.61c-1-.43-1.75,0-3.24,0a3.86,3.86,0,0,1-3.41-2.1,9.28,9.28,0,0,1-1.06-4,7,7,0,0,1,.63-3.72,5,5,0,0,1,2.63-2.47l2.69-1.06a10,10,0,0,1,2.44-.63,6.84,6.84,0,0,1,4.85,1.42,9.63,9.63,0,0,1,3,4.06c.33.82,1,1.7,1.49,2.87a8.11,8.11,0,0,1,.71,4.11c-.14,1.16,2.36,2.76,3.3,1.8a16.45,16.45,0,0,0,3.44-5,9.65,9.65,0,0,0,.49-6.39,15.12,15.12,0,0,0-18.7-10.53,13.21,13.21,0,0,0-4.7,2.3,8.1,8.1,0,0,0-2.86,4.08,30.06,30.06,0,0,0-1,4.86,18.56,18.56,0,0,0,0,4.53,12.2,12.2,0,0,0,1.6,4.22A37.94,37.94,0,0,1,518,365.3c.72,1.71,1.46,3.11,3.35,3.82a12.94,12.94,0,0,0,5.17.58,10.4,10.4,0,0,0,5.24-1.91,13.43,13.43,0,0,0,3.63-4C535.85,363.11,534.23,361.66,533.56,362Z"/></g></g></svg>