<svg xmlns="http://www.w3.org/2000/svg" viewBox="0 0 573.34 483.24"><title>Asset 5</title><g id="Layer_2" data-name="Layer 2"><g id="Layer_1-2" data-name="Layer 1"><path d="M324.77,149.71l-28.23,55.22L239.9,315.71,196,401.53c-4.72,9.23-9.29,18.5-16.12,26.44A89.6,89.6,0,0,1,107,459C81.38,457.55,55.33,443.75,39,424.1c-17.28-20.74-23.85-49.87-17.59-76.05,2.46-10.29,7-19.32,11.73-28.61l17.79-34.81,55.38-108.3L154,83c2.62-5.13,5.21-10.28,7.87-15.4A89.81,89.81,0,0,1,226.5,20.14c25.64-4.49,52.73,4.08,73.21,19.71a88.42,88.42,0,0,1,25.06,109.86c-5.53,11,11,20.75,16.58,9.69,14.33-28.52,15.95-61.71,3.51-91.22-11.61-27.53-33.86-47.55-61-59.27a108.73,108.73,0,0,0-91.39,2.4c-20.79,10.27-37.38,27.49-47.91,48q-18.45,36-36.84,72.06L48.26,247.67q-17.89,35-35.79,70C1.19,339.81-2.72,364.31,1.9,388.81c5.79,30.65,25.76,58,53,73.17,26.12,14.54,55.33,20.46,84.68,12.87A108.3,108.3,0,0,0,208,420.17c10.35-20,20.48-40.05,30.72-60.08l59.14-115.66,41.33-80.85,2.14-4.18C347,148.42,330.4,138.7,324.77,149.71Z"/><path d="M91.4,184.23c5.7-3.53,9.26-2.31,13-1.48a43.17,43.17,0,0,0,8.28,1.43c5.44.15,9.36,3.22,13.31,6.31a29,29,0,0,0,5.89,3.34c9.11,4.22,18.26,8.35,27.38,12.55,6.35,2.92,12.8,5.63,19,8.91,10.46,5.56,20.86,11.26,31.06,17.33,10.88,6.47,21.38,13.64,32.27,20.09,5,3,10.62,5,16,7.43,3.7,1.7,7.42,3.36,11.07,5.13,2.52,1.23,4.95,2.61,7.4,4,.26.15.33.67.78,1.65a11.24,11.24,0,0,1-2.94.17c-4.61-1.31-9.13-2.85-13.78-4.07-5.4-1.42-11.12-2.13-16.32-4a297.79,297.79,0,0,1-28.06-11.15c-8.56-4-16.58-9.13-24.84-13.75-.3-.16-.65-.22-.95-.38-3-1.67-6-3.47-9.12-5-2.32-1.14-4.82-1.92-7.24-2.85a6.25,6.25,0,0,1-1.31-.41c-3.4-2.22-6.78-4.5-10.18-6.73a53.12,53.12,0,0,0-5.66-3.56c-6.57-3.24-13.35-6.08-19.79-9.56a118.3,118.3,0,0,1-14.82-9.51c-8.42-6.32-17.93-10.49-27.53-14.51C93.36,185.29,92.59,184.83,91.4,184.23Z"/><path d="M85.34,195.21c3.08.89,5.76,1.75,8.51,2.43a32.6,32.6,0,0,0,5.2.82c3.79.33,7.44.9,10.28,3.35a34.25,34.25,0,0,0,5.2,3.2c5.48,3.27,10.77,6.88,16.17,10.29,6.26,3.94,13.51,6,20.28,9a5.4,5.4,0,0,1,2.6,2.17c2.4,4.21,5.71,6.73,10.13,7.34a3.31,3.31,0,0,1,2.67,1.41c1.9,3.57,5.19,4.54,8.61,5.07,4,.61,7.12,2.71,10.24,5s6.89,3.33,10.18,5.28c4.86,2.87,9.46,6.23,14.33,9.07s9.9,5.36,14.92,7.92Q236,273.38,247.35,279c2.33,1.13,5.11,1.42,7.19,3a34.16,34.16,0,0,1,8.25,9.11c-4.09-1.42-8.18-2.85-12.29-4.24a45.3,45.3,0,0,0-5.56-1.71,74.76,74.76,0,0,1-28.77-11.91,27.1,27.1,0,0,0-7.39-3.33c-7.05-2.27-11.79-8.46-16.78-14.21-3.44-4-7.05-7.45-12-8.81-5.29-1.44-9.78-4.66-14.75-6.83-6.09-2.66-12.53-4.63-18.45-7.62-13.09-6.61-26.12-13.35-38.86-20.65-7.72-4.42-14.85-10-22.24-15.05C85.51,196.57,85.53,196.14,85.34,195.21Z"/><path d="M349,429.44c-34.46-34.85-45.13-89.06-24.33-133.9a121,121,0,0,1,119.75-69.46c27.7,2.36,53.76,15,73.44,34.51V247L356.42,408.46l-21,21c-8.75,8.75,4.83,22.33,13.58,13.58L510.46,281.57l21-21a9.74,9.74,0,0,0,0-13.58,140.23,140.23,0,0,0-156.53-27.62c-52.24,23.89-85,80.86-79.48,138a140.47,140.47,0,0,0,40,85.64C344.13,451.82,357.71,438.24,349,429.44Z"/><path d="M549.71,302.24c.65,1.28,1.21,2.61,1.82,3.92.3.66.61,1.31.87,2s.51,1.36.74,2a117.59,117.59,0,0,1,6.46,38.44,112.37,112.37,0,0,1-1.44,17.17,134.22,134.22,0,0,1-4,16.79,127.44,127.44,0,0,1-25.12,45.2,136.63,136.63,0,0,1-36.36,30A261.63,261.63,0,0,1,468,470.33c1.68-.31,3.41-.47,5.07-.93,2.32-.76,4.68-1.41,7-2.3l3.44-1.27,3.39-1.42,1.7-.71,1.66-.78,3.33-1.56,3.26-1.69c1.09-.56,2.18-1.13,3.24-1.75a132.29,132.29,0,0,0,39.69-34.14,133.72,133.72,0,0,0,23.6-47.3c4.45-16.4,6.5-33.73,4.57-51a119.76,119.76,0,0,0-7.26-29,10.34,10.34,0,0,1-.48-1.09,135.21,135.21,0,0,0-11.25-28c-.27-.51-.44-1.07-.91-2.24a96,96,0,0,1,21.54,46c1.13,6.23,2.4,12.51,3.06,18.84a153,153,0,0,1-1.69,42.19c-2.46,14.51-6.46,29-13.38,42.35A104,104,0,0,1,544,434a138.52,138.52,0,0,1-22.88,21.36,144.46,144.46,0,0,1-13,8.65c-2.28,1.25-4.49,2.6-6.83,3.73l-3.47,1.76-3.54,1.62a150.56,150.56,0,0,1-20.12,7.7A108.83,108.83,0,0,1,427.29,482c-9.58-1.56-18.88-3.94-28.34-6.34-6.67-1.66-12.85-5-18.71-8.46a116.07,116.07,0,0,1-15.76-11.39c-1.87-1.59-2.57-3.05-.9-4.49,10.26,2.85,20.3,4.18,30.34,6.41a187.33,187.33,0,0,0,19.41,3.42c3.86.48,7.73.74,11.6.94,1.94,0,3.88.09,5.81.05s3.86-.07,5.79-.27a133.27,133.27,0,0,0,19.56-3.38L469,455.72c10.33-2.38,19.77-7.53,28.52-13.33a163.24,163.24,0,0,0,14.84-10.89,116.72,116.72,0,0,0,13.23-13c.7-.82,1.41-1.63,2.08-2.49l1.94-2.6,1-1.3.92-1.34c.61-.89,1.23-1.78,1.87-2.65A103.8,103.8,0,0,0,541.8,393c2.45-5.24,4.53-10.64,6.62-16.1,3.08-7.88,4.18-16.51,5-25,.29-2.42.74-4.83.88-7.28a122.87,122.87,0,0,0-.78-17.14c-.2-1.42-.32-2.86-.57-4.27l-.72-4.25c-.59-2.81-1.15-5.63-1.92-8.41-.52-2.25-1.2-4.46-1.59-6.73-.09-.48.68-1.07,1.06-1.62Z"/></g></g></svg>