<svg
  fill="#000000"
  width="800px"
  height="800px"
  viewBox="0 0 256 256"
  xmlns="http://www.w3.org/2000/svg"
>
  <path
    d="M179.12354,169.501a4.0002,4.0002,0,0,1-6.24708,4.998L160,158.40332,147.12354,174.499a4.00053,4.00053,0,0,1-6.24708,0L128,158.40332,115.12354,174.499a4.00053,4.00053,0,0,1-6.24708,0L96,158.40332,83.12354,174.499a4.0002,4.0002,0,1,1-6.24708-4.998l16-20a4.00053,4.00053,0,0,1,6.24708,0L112,165.59668l12.87646-16.0957a4.00053,4.00053,0,0,1,6.24708,0L144,165.59668l12.87646-16.0957a4.00053,4.00053,0,0,1,6.24708,0ZM84,108a8,8,0,1,1,8,8A8.00917,8.00917,0,0,1,84,108Zm72,0a8,8,0,1,1,8,8A8.00917,8.00917,0,0,1,156,108Z"
  />
</svg>
